<?xml version="1.0" encoding="UTF-8"?> <svg xmlns="http://www.w3.org/2000/svg" width="451" height="467" viewBox="0 0 451 467" fill="none"><rect width="451" height="467" fill="black" fill-opacity="0.5"></rect><g clip-path="url(#clip0_917_4324)"><path d="M205.548 70H245.679L301 233H262.91L244.318 170.555C206.438 172.692 168.746 200.03 150 233L205.548 70ZM244.318 170.555L225.5 107.88L206.228 170.555H244.318Z" fill="#FBF5EE"></path></g><path d="M146.75 343H128.281V340.781C129.906 340.677 131.25 340.469 132.312 340.156C133.396 339.844 133.938 339.458 133.938 339C133.938 338.812 133.917 338.583 133.875 338.312C133.833 338.042 133.771 337.802 133.688 337.594L130 327.656H114.469C113.885 329.115 113.406 330.385 113.031 331.469C112.677 332.552 112.354 333.552 112.062 334.469C111.792 335.365 111.604 336.094 111.5 336.656C111.396 337.219 111.344 337.677 111.344 338.031C111.344 338.865 112 339.51 113.312 339.969C114.625 340.427 116.104 340.698 117.75 340.781V343H101.062V340.781C101.604 340.74 102.281 340.625 103.094 340.438C103.906 340.229 104.573 339.958 105.094 339.625C105.927 339.062 106.573 338.479 107.031 337.875C107.49 337.25 107.938 336.396 108.375 335.312C110.604 329.75 113.062 323.5 115.75 316.562C118.438 309.625 120.833 303.448 122.938 298.031H125.438L140.219 336.281C140.531 337.094 140.885 337.75 141.281 338.25C141.677 338.75 142.229 339.24 142.938 339.719C143.417 340.01 144.042 340.26 144.812 340.469C145.583 340.656 146.229 340.76 146.75 340.781V343ZM128.875 324.875L122.156 307.688L115.562 324.875H128.875ZM190.812 343H170.062V340.781C171.771 340.74 173.146 340.583 174.188 340.312C175.25 340.021 175.781 339.583 175.781 339C175.781 338.688 175.542 338.042 175.062 337.062C174.583 336.083 173.969 334.99 173.219 333.781C172.385 332.448 171.396 330.885 170.25 329.094C169.104 327.281 167.969 325.552 166.844 323.906C165.01 326.323 162.927 329.24 160.594 332.656C158.26 336.052 157.094 338.052 157.094 338.656C157.094 339.344 157.406 339.854 158.031 340.188C158.677 340.5 160.083 340.698 162.25 340.781V343H145.688V340.781C146.229 340.74 146.917 340.667 147.75 340.562C148.604 340.438 149.302 340.24 149.844 339.969C150.927 339.385 151.792 338.76 152.438 338.094C153.104 337.406 153.771 336.604 154.438 335.688C155.771 333.854 157.479 331.573 159.562 328.844C161.646 326.094 163.49 323.594 165.094 321.344C163.885 319.573 162.344 317.333 160.469 314.625C158.594 311.896 156.594 308.979 154.469 305.875C153.573 304.562 152.865 303.635 152.344 303.094C151.844 302.552 151.167 302.083 150.312 301.688C149.812 301.458 149.115 301.281 148.219 301.156C147.344 301.01 146.646 300.917 146.125 300.875V298.656H166.656V300.875C165.448 300.917 164.188 301.073 162.875 301.344C161.583 301.594 160.938 301.99 160.938 302.531C160.938 302.927 161.198 303.625 161.719 304.625C162.24 305.604 162.854 306.656 163.562 307.781C164.292 308.948 165.104 310.24 166 311.656C166.896 313.073 167.99 314.708 169.281 316.562C171.635 313.375 173.667 310.5 175.375 307.938C177.083 305.375 177.938 303.708 177.938 302.938C177.938 302.271 177.542 301.781 176.75 301.469C175.979 301.156 174.667 300.958 172.812 300.875V298.656H189.344V300.875C188.823 300.896 188.135 300.979 187.281 301.125C186.448 301.25 185.75 301.438 185.188 301.688C184.104 302.208 183.292 302.771 182.75 303.375C182.229 303.979 181.521 304.854 180.625 306C178.958 308.146 177.417 310.167 176 312.062C174.604 313.938 172.917 316.229 170.938 318.938C172.604 321.312 174.458 324.01 176.5 327.031C178.562 330.052 180.531 332.938 182.406 335.688C183.052 336.625 183.792 337.521 184.625 338.375C185.458 339.208 186.135 339.781 186.656 340.094C187.156 340.385 187.823 340.573 188.656 340.656C189.51 340.719 190.229 340.76 190.812 340.781V343ZM213.219 343H193.25V340.781C193.812 340.74 194.625 340.677 195.688 340.594C196.75 340.51 197.5 340.385 197.938 340.219C198.625 339.948 199.125 339.583 199.438 339.125C199.75 338.646 199.906 337.99 199.906 337.156V305.031C199.906 304.302 199.792 303.698 199.562 303.219C199.333 302.719 198.792 302.302 197.938 301.969C197.312 301.719 196.521 301.49 195.562 301.281C194.625 301.052 193.854 300.917 193.25 300.875V298.656H213.219V300.875C212.573 300.896 211.802 300.979 210.906 301.125C210.01 301.25 209.229 301.417 208.562 301.625C207.771 301.875 207.24 302.281 206.969 302.844C206.698 303.406 206.562 304.031 206.562 304.719V336.812C206.562 337.5 206.708 338.115 207 338.656C207.312 339.177 207.833 339.594 208.562 339.906C209 340.073 209.708 340.26 210.688 340.469C211.688 340.656 212.531 340.76 213.219 340.781V343ZM238.156 343H218.188V340.781C218.75 340.74 219.562 340.677 220.625 340.594C221.688 340.51 222.438 340.385 222.875 340.219C223.562 339.948 224.062 339.583 224.375 339.125C224.688 338.646 224.844 337.99 224.844 337.156V305.031C224.844 304.302 224.729 303.698 224.5 303.219C224.271 302.719 223.729 302.302 222.875 301.969C222.25 301.719 221.458 301.49 220.5 301.281C219.562 301.052 218.792 300.917 218.188 300.875V298.656H238.156V300.875C237.51 300.896 236.74 300.979 235.844 301.125C234.948 301.25 234.167 301.417 233.5 301.625C232.708 301.875 232.177 302.281 231.906 302.844C231.635 303.406 231.5 304.031 231.5 304.719V336.812C231.5 337.5 231.646 338.115 231.938 338.656C232.25 339.177 232.771 339.594 233.5 339.906C233.938 340.073 234.646 340.26 235.625 340.469C236.625 340.656 237.469 340.76 238.156 340.781V343ZM279.531 303.906C281.49 305.948 283.021 308.417 284.125 311.312C285.229 314.188 285.781 317.375 285.781 320.875C285.781 324.396 285.219 327.594 284.094 330.469C282.969 333.344 281.406 335.792 279.406 337.812C277.469 339.812 275.219 341.354 272.656 342.438C270.094 343.521 267.365 344.062 264.469 344.062C261.385 344.062 258.531 343.49 255.906 342.344C253.302 341.177 251.062 339.562 249.188 337.5C247.312 335.479 245.833 333.031 244.75 330.156C243.688 327.26 243.156 324.167 243.156 320.875C243.156 317.271 243.719 314.062 244.844 311.25C245.969 308.417 247.521 305.969 249.5 303.906C251.458 301.865 253.729 300.302 256.312 299.219C258.917 298.135 261.635 297.594 264.469 297.594C267.406 297.594 270.177 298.146 272.781 299.25C275.385 300.354 277.635 301.906 279.531 303.906ZM274.875 335.344C276.042 333.448 276.885 331.302 277.406 328.906C277.948 326.51 278.219 323.833 278.219 320.875C278.219 317.833 277.917 315.042 277.312 312.5C276.729 309.958 275.865 307.792 274.719 306C273.573 304.229 272.135 302.854 270.406 301.875C268.677 300.875 266.698 300.375 264.469 300.375C261.969 300.375 259.844 300.948 258.094 302.094C256.344 303.24 254.917 304.771 253.812 306.688C252.771 308.521 251.99 310.667 251.469 313.125C250.969 315.583 250.719 318.167 250.719 320.875C250.719 323.875 250.99 326.583 251.531 329C252.073 331.417 252.927 333.562 254.094 335.438C255.219 337.271 256.635 338.708 258.344 339.75C260.052 340.771 262.094 341.281 264.469 341.281C266.698 341.281 268.708 340.76 270.5 339.719C272.292 338.677 273.75 337.219 274.875 335.344ZM344.719 343H325.125V340.781C325.833 340.76 326.74 340.688 327.844 340.562C328.969 340.438 329.74 340.26 330.156 340.031C330.802 339.635 331.271 339.188 331.562 338.688C331.875 338.167 332.031 337.521 332.031 336.75V304.5H331.562L316.438 342.281H314.875L300.469 303.719H300.062V330.188C300.062 332.75 300.219 334.698 300.531 336.031C300.865 337.365 301.365 338.323 302.031 338.906C302.49 339.344 303.438 339.76 304.875 340.156C306.312 340.552 307.25 340.76 307.688 340.781V343H289.781V340.781C290.719 340.698 291.698 340.542 292.719 340.312C293.76 340.083 294.562 339.74 295.125 339.281C295.854 338.698 296.354 337.802 296.625 336.594C296.896 335.385 297.031 333.365 297.031 330.531V307.844C297.031 306.531 296.875 305.458 296.562 304.625C296.25 303.792 295.802 303.115 295.219 302.594C294.573 302.031 293.781 301.615 292.844 301.344C291.906 301.073 290.979 300.917 290.062 300.875V298.656H305.188L317.875 331.906L328.719 304.094C329.115 303.073 329.448 302.01 329.719 300.906C330.01 299.781 330.167 299.031 330.188 298.656H344.656V300.875C344.073 300.896 343.323 300.99 342.406 301.156C341.51 301.323 340.854 301.479 340.438 301.625C339.729 301.875 339.25 302.292 339 302.875C338.75 303.458 338.625 304.094 338.625 304.781V336.75C338.625 337.479 338.75 338.094 339 338.594C339.25 339.094 339.729 339.531 340.438 339.906C340.812 340.115 341.479 340.312 342.438 340.5C343.396 340.667 344.156 340.76 344.719 340.781V343Z" fill="#FBF5EE"></path><path d="M100.961 383.519H100.265C100.203 383.277 100.12 383.021 100.015 382.749C99.9095 382.476 99.7518 382.167 99.5415 381.821C99.3436 381.499 99.1395 381.233 98.9292 381.023C98.7251 380.813 98.487 380.689 98.2148 380.652C98.0046 380.621 97.7448 380.599 97.4355 380.587C97.1325 380.575 96.8418 380.568 96.5635 380.568H94.6709V391.126C94.6709 391.336 94.7204 391.522 94.8193 391.683C94.9183 391.837 95.0667 391.964 95.2646 392.063C95.3883 392.119 95.611 392.177 95.9326 392.239C96.2604 392.301 96.5264 392.335 96.7305 392.341V393H90.8208V392.341C91.0063 392.329 91.2537 392.31 91.563 392.286C91.8722 392.255 92.0732 392.218 92.166 392.174C92.3516 392.094 92.4845 391.976 92.5649 391.822C92.6515 391.661 92.6948 391.469 92.6948 391.247V381.747C92.6948 381.542 92.6608 381.363 92.5928 381.208C92.5247 381.048 92.3825 380.918 92.166 380.819C91.999 380.738 91.7733 380.667 91.4888 380.605C91.2104 380.544 90.9878 380.507 90.8208 380.494V379.835H100.961V383.519ZM110.452 392.833C110.161 392.938 109.904 393.022 109.682 393.083C109.465 393.152 109.218 393.186 108.939 393.186C108.457 393.186 108.07 393.074 107.78 392.852C107.495 392.623 107.313 392.292 107.232 391.859H107.177C106.775 392.304 106.342 392.644 105.878 392.879C105.42 393.114 104.867 393.232 104.217 393.232C103.531 393.232 102.965 393.022 102.52 392.601C102.08 392.181 101.861 391.63 101.861 390.95C101.861 390.597 101.91 390.282 102.009 390.003C102.108 389.725 102.257 389.475 102.455 389.252C102.609 389.066 102.813 388.903 103.067 388.76C103.32 388.612 103.559 388.494 103.781 388.408C104.06 388.303 104.622 388.108 105.47 387.823C106.323 387.539 106.898 387.316 107.195 387.155V386.237C107.195 386.156 107.177 386.002 107.14 385.773C107.109 385.544 107.038 385.328 106.926 385.124C106.803 384.895 106.626 384.697 106.397 384.53C106.175 384.357 105.856 384.27 105.442 384.27C105.157 384.27 104.891 384.319 104.644 384.418C104.403 384.511 104.233 384.61 104.134 384.715C104.134 384.839 104.162 385.021 104.217 385.263C104.279 385.504 104.31 385.727 104.31 385.931C104.31 386.147 104.211 386.345 104.013 386.524C103.821 386.704 103.552 386.793 103.206 386.793C102.897 386.793 102.668 386.685 102.52 386.469C102.377 386.246 102.306 385.999 102.306 385.727C102.306 385.442 102.405 385.17 102.603 384.91C102.807 384.65 103.07 384.418 103.392 384.214C103.67 384.041 104.007 383.896 104.403 383.778C104.799 383.655 105.185 383.593 105.562 383.593C106.082 383.593 106.534 383.63 106.917 383.704C107.307 383.772 107.659 383.924 107.975 384.159C108.29 384.388 108.528 384.7 108.689 385.096C108.856 385.485 108.939 385.989 108.939 386.608C108.939 387.492 108.93 388.278 108.912 388.964C108.893 389.645 108.884 390.39 108.884 391.2C108.884 391.441 108.924 391.633 109.004 391.775C109.091 391.918 109.221 392.038 109.394 392.137C109.487 392.193 109.632 392.224 109.83 392.23C110.034 392.236 110.241 392.239 110.452 392.239V392.833ZM107.214 387.935C106.688 388.089 106.227 388.241 105.832 388.389C105.436 388.538 105.068 388.723 104.728 388.946C104.418 389.156 104.174 389.407 103.995 389.697C103.815 389.982 103.726 390.322 103.726 390.718C103.726 391.231 103.859 391.608 104.125 391.85C104.397 392.091 104.74 392.211 105.154 392.211C105.593 392.211 105.98 392.106 106.314 391.896C106.648 391.68 106.929 391.426 107.158 391.135L107.214 387.935ZM119.72 384.938C120.085 385.371 120.366 385.875 120.564 386.45C120.768 387.019 120.87 387.672 120.87 388.408C120.87 389.131 120.75 389.793 120.508 390.393C120.267 390.987 119.949 391.494 119.553 391.915C119.138 392.341 118.678 392.669 118.17 392.898C117.663 393.127 117.125 393.241 116.556 393.241C116.006 393.241 115.554 393.179 115.202 393.056C114.849 392.932 114.562 392.787 114.339 392.62H114.265V395.366C114.265 395.588 114.308 395.774 114.395 395.922C114.481 396.071 114.614 396.179 114.793 396.247C114.942 396.303 115.152 396.355 115.424 396.405C115.703 396.46 115.931 396.491 116.111 396.498V397.119H110.999V396.498C111.191 396.485 111.376 396.47 111.556 396.451C111.735 396.433 111.896 396.402 112.038 396.358C112.224 396.297 112.354 396.188 112.428 396.034C112.502 395.879 112.539 395.697 112.539 395.486V385.754C112.539 385.569 112.493 385.389 112.4 385.216C112.307 385.043 112.187 384.904 112.038 384.799C111.927 384.725 111.772 384.669 111.574 384.632C111.376 384.589 111.185 384.561 110.999 384.548V383.945L114.116 383.741L114.246 383.853V384.882L114.32 384.901C114.642 384.53 115.041 384.221 115.517 383.973C115.993 383.726 116.466 383.602 116.937 383.602C117.506 383.602 118.025 383.723 118.495 383.964C118.971 384.205 119.38 384.53 119.72 384.938ZM118.208 391.516C118.455 391.132 118.637 390.687 118.755 390.18C118.872 389.673 118.931 389.107 118.931 388.482C118.931 388.024 118.882 387.557 118.783 387.081C118.684 386.605 118.529 386.19 118.319 385.838C118.109 385.479 117.833 385.188 117.493 384.966C117.153 384.743 116.745 384.632 116.269 384.632C115.811 384.632 115.421 384.734 115.1 384.938C114.778 385.136 114.5 385.374 114.265 385.652V391.061C114.32 391.228 114.41 391.401 114.534 391.581C114.664 391.76 114.806 391.915 114.96 392.044C115.152 392.199 115.359 392.326 115.582 392.425C115.805 392.518 116.077 392.564 116.398 392.564C116.745 392.564 117.079 392.474 117.4 392.295C117.722 392.109 117.991 391.85 118.208 391.516ZM134.489 393H130.008V392.388C130.151 392.375 130.296 392.363 130.444 392.351C130.599 392.338 130.732 392.313 130.843 392.276C131.023 392.221 131.159 392.122 131.251 391.979C131.35 391.831 131.4 391.652 131.4 391.441V384.817H131.177L128.079 392.852H127.503L124.59 384.66H124.386V391.07C124.386 391.386 124.43 391.633 124.516 391.812C124.609 391.992 124.739 392.116 124.906 392.184C125.036 392.245 125.175 392.292 125.323 392.323C125.478 392.354 125.636 392.375 125.796 392.388V393H122.234V392.388C122.376 392.375 122.521 392.363 122.67 392.351C122.825 392.338 122.958 392.313 123.069 392.276C123.254 392.215 123.384 392.094 123.458 391.915C123.539 391.729 123.579 391.479 123.579 391.163V385.597C123.579 385.355 123.536 385.161 123.449 385.012C123.363 384.858 123.233 384.743 123.06 384.669C122.899 384.595 122.741 384.545 122.586 384.521C122.438 384.496 122.299 384.477 122.169 384.465V383.853H125.973L128.264 390.402L130.287 384.975C130.348 384.796 130.417 384.582 130.491 384.335C130.565 384.088 130.605 383.927 130.611 383.853H134.452V384.465C134.273 384.477 134.115 384.493 133.979 384.511C133.849 384.53 133.729 384.551 133.617 384.576C133.444 384.626 133.314 384.725 133.228 384.873C133.147 385.015 133.107 385.195 133.107 385.411V391.349C133.107 391.565 133.144 391.741 133.218 391.877C133.292 392.007 133.419 392.109 133.599 392.184C133.729 392.245 133.868 392.292 134.016 392.323C134.171 392.354 134.328 392.375 134.489 392.388V393ZM144.731 388.333C144.731 388.977 144.629 389.611 144.425 390.235C144.221 390.854 143.931 391.38 143.553 391.812C143.126 392.307 142.632 392.675 142.069 392.917C141.506 393.158 140.875 393.278 140.176 393.278C139.595 393.278 139.041 393.17 138.516 392.954C137.99 392.731 137.523 392.409 137.115 391.989C136.713 391.574 136.391 391.07 136.15 390.477C135.915 389.877 135.797 389.206 135.797 388.463C135.797 387.035 136.212 385.866 137.041 384.957C137.875 384.047 138.967 383.593 140.315 383.593C141.596 383.593 142.65 384.026 143.479 384.892C144.314 385.751 144.731 386.899 144.731 388.333ZM142.811 388.352C142.811 387.888 142.765 387.4 142.672 386.886C142.579 386.367 142.44 385.928 142.254 385.569C142.056 385.185 141.797 384.879 141.475 384.65C141.153 384.415 140.761 384.298 140.297 384.298C139.821 384.298 139.412 384.415 139.072 384.65C138.738 384.885 138.466 385.207 138.256 385.615C138.058 385.993 137.919 386.422 137.838 386.905C137.758 387.387 137.718 387.854 137.718 388.306C137.718 388.899 137.764 389.45 137.857 389.957C137.956 390.458 138.111 390.906 138.321 391.302C138.531 391.698 138.794 392.01 139.109 392.239C139.431 392.462 139.827 392.573 140.297 392.573C141.07 392.573 141.682 392.199 142.134 391.451C142.585 390.702 142.811 389.669 142.811 388.352ZM156.31 393H151.838V392.388C151.98 392.375 152.125 392.363 152.274 392.351C152.429 392.338 152.562 392.313 152.673 392.276C152.846 392.221 152.979 392.125 153.072 391.989C153.165 391.847 153.211 391.664 153.211 391.441V388.528H149.138V391.349C149.138 391.559 149.181 391.732 149.268 391.868C149.355 392.004 149.485 392.109 149.658 392.184C149.788 392.245 149.927 392.292 150.075 392.323C150.23 392.354 150.388 392.375 150.548 392.388V393H146.077V392.388C146.219 392.375 146.364 392.363 146.513 392.351C146.667 392.338 146.8 392.313 146.912 392.276C147.085 392.221 147.212 392.125 147.292 391.989C147.379 391.847 147.422 391.664 147.422 391.441V385.504C147.422 385.3 147.379 385.13 147.292 384.994C147.205 384.851 147.076 384.743 146.902 384.669C146.742 384.595 146.584 384.545 146.429 384.521C146.281 384.496 146.142 384.477 146.012 384.465V383.853H150.483V384.465C150.304 384.477 150.146 384.493 150.01 384.511C149.88 384.53 149.76 384.551 149.648 384.576C149.475 384.626 149.345 384.725 149.259 384.873C149.178 385.015 149.138 385.195 149.138 385.411V387.768H153.211V385.504C153.211 385.3 153.168 385.13 153.081 384.994C152.994 384.851 152.865 384.743 152.691 384.669C152.531 384.595 152.373 384.545 152.218 384.521C152.07 384.496 151.931 384.477 151.801 384.465V383.853H156.272V384.465C156.093 384.477 155.935 384.493 155.799 384.511C155.669 384.53 155.549 384.551 155.438 384.576C155.264 384.626 155.134 384.725 155.048 384.873C154.967 385.015 154.927 385.195 154.927 385.411V391.349C154.927 391.565 154.964 391.741 155.039 391.877C155.113 392.007 155.24 392.109 155.419 392.184C155.549 392.245 155.688 392.292 155.836 392.323C155.991 392.354 156.149 392.375 156.31 392.388V393ZM167.953 393H163.509V392.388C163.651 392.375 163.796 392.363 163.945 392.351C164.099 392.338 164.232 392.313 164.344 392.276C164.517 392.221 164.65 392.125 164.743 391.989C164.835 391.847 164.882 391.664 164.882 391.441V386.636L160.67 391.191V391.349C160.67 391.559 160.713 391.732 160.8 391.868C160.886 392.004 161.016 392.109 161.189 392.184C161.326 392.245 161.468 392.292 161.616 392.323C161.771 392.354 161.932 392.375 162.099 392.388V393H157.655V392.388C157.797 392.375 157.942 392.363 158.091 392.351C158.245 392.338 158.378 392.313 158.49 392.276C158.663 392.221 158.79 392.125 158.87 391.989C158.957 391.847 159 391.664 159 391.441V385.504C159 385.3 158.957 385.13 158.87 384.994C158.784 384.851 158.654 384.743 158.48 384.669C158.32 384.595 158.162 384.545 158.007 384.521C157.859 384.496 157.72 384.477 157.59 384.465V383.853H162.034V384.465C161.854 384.477 161.697 384.493 161.561 384.511C161.431 384.53 161.31 384.551 161.199 384.576C161.026 384.626 160.896 384.725 160.809 384.873C160.729 385.015 160.688 385.195 160.688 385.411V390.143L164.9 385.578C164.9 385.306 164.857 385.105 164.771 384.975C164.684 384.845 164.554 384.743 164.381 384.669C164.22 384.595 164.059 384.545 163.898 384.521C163.744 384.496 163.602 384.477 163.472 384.465V383.853H167.916V384.465C167.736 384.477 167.578 384.493 167.442 384.511C167.312 384.53 167.192 384.551 167.081 384.576C166.907 384.626 166.778 384.725 166.691 384.873C166.611 385.015 166.57 385.195 166.57 385.411V391.349C166.57 391.565 166.607 391.741 166.682 391.877C166.756 392.007 166.883 392.109 167.062 392.184C167.192 392.245 167.331 392.292 167.479 392.323C167.634 392.354 167.792 392.375 167.953 392.388V393ZM175.254 388.194V384.511H174.215C173.565 384.511 173.027 384.663 172.601 384.966C172.174 385.269 171.96 385.717 171.96 386.311C171.96 386.923 172.186 387.39 172.638 387.712C173.089 388.034 173.732 388.194 174.567 388.194H175.254ZM172.452 388.584V388.528C171.617 388.361 171.008 388.086 170.625 387.703C170.247 387.313 170.059 386.821 170.059 386.228C170.059 385.498 170.386 384.919 171.042 384.493C171.704 384.066 172.539 383.853 173.547 383.853H178.325V384.465C178.145 384.477 177.988 384.493 177.852 384.511C177.722 384.53 177.601 384.551 177.49 384.576C177.317 384.626 177.187 384.725 177.1 384.873C177.02 385.015 176.979 385.195 176.979 385.411V391.349C176.979 391.565 177.017 391.741 177.091 391.877C177.165 392.007 177.292 392.109 177.471 392.184C177.601 392.245 177.74 392.292 177.889 392.323C178.043 392.354 178.201 392.375 178.362 392.388V393H173.881V392.388C174.023 392.375 174.168 392.363 174.317 392.351C174.472 392.338 174.604 392.313 174.716 392.276C174.889 392.221 175.022 392.125 175.115 391.989C175.208 391.847 175.254 391.664 175.254 391.441V388.872H174.864C174.289 388.872 173.838 388.983 173.51 389.206C173.188 389.422 172.879 389.833 172.582 390.439C172.366 390.891 172.186 391.308 172.044 391.692C171.908 392.075 171.766 392.511 171.617 393H168.491V392.388C168.633 392.369 168.766 392.351 168.89 392.332C169.02 392.313 169.159 392.292 169.307 392.267C169.499 392.23 169.672 392.156 169.827 392.044C169.987 391.933 170.127 391.751 170.244 391.497C170.306 391.355 170.389 391.166 170.495 390.931C170.606 390.69 170.736 390.421 170.884 390.124C171.082 389.734 171.302 389.416 171.543 389.168C171.79 388.921 172.093 388.726 172.452 388.584ZM192.25 393H184.281V392.388C184.423 392.375 184.568 392.363 184.717 392.351C184.871 392.338 185.004 392.313 185.116 392.276C185.289 392.221 185.416 392.125 185.496 391.989C185.583 391.847 185.626 391.664 185.626 391.441V385.504C185.626 385.3 185.589 385.13 185.515 384.994C185.44 384.858 185.314 384.749 185.134 384.669C184.973 384.595 184.816 384.545 184.661 384.521C184.513 384.496 184.374 384.477 184.244 384.465V383.853H188.715V384.465C188.536 384.477 188.381 384.493 188.251 384.511C188.122 384.53 188.001 384.551 187.89 384.576C187.716 384.626 187.583 384.725 187.491 384.873C187.398 385.021 187.352 385.201 187.352 385.411V391.386C187.352 391.72 187.429 391.952 187.583 392.082C187.738 392.205 187.951 392.27 188.224 392.276C188.378 392.276 188.558 392.283 188.762 392.295C188.966 392.301 189.198 392.304 189.458 392.304C189.655 392.304 189.86 392.301 190.07 392.295C190.286 392.289 190.497 392.283 190.701 392.276C190.96 392.27 191.118 392.215 191.174 392.109C191.236 391.998 191.267 391.812 191.267 391.553V385.504C191.267 385.3 191.223 385.13 191.137 384.994C191.05 384.851 190.92 384.743 190.747 384.669C190.586 384.595 190.432 384.545 190.283 384.521C190.141 384.496 190.002 384.477 189.866 384.465V383.853H194.337V384.465C194.158 384.477 194 384.493 193.864 384.511C193.734 384.53 193.614 384.551 193.502 384.576C193.329 384.626 193.199 384.725 193.113 384.873C193.032 385.015 192.992 385.195 192.992 385.411V391.367C192.992 391.695 193.054 391.93 193.178 392.072C193.308 392.208 193.577 392.276 193.985 392.276H194.579V395.709H193.911C193.787 395.09 193.567 394.503 193.252 393.946C192.943 393.39 192.609 393.074 192.25 393ZM206.027 393H201.583V392.388C201.725 392.375 201.871 392.363 202.019 392.351C202.174 392.338 202.307 392.313 202.418 392.276C202.591 392.221 202.724 392.125 202.817 391.989C202.91 391.847 202.956 391.664 202.956 391.441V386.636L198.744 391.191V391.349C198.744 391.559 198.787 391.732 198.874 391.868C198.961 392.004 199.09 392.109 199.264 392.184C199.4 392.245 199.542 392.292 199.69 392.323C199.845 392.354 200.006 392.375 200.173 392.388V393H195.729V392.388C195.871 392.375 196.017 392.363 196.165 392.351C196.32 392.338 196.453 392.313 196.564 392.276C196.737 392.221 196.864 392.125 196.944 391.989C197.031 391.847 197.074 391.664 197.074 391.441V385.504C197.074 385.3 197.031 385.13 196.944 384.994C196.858 384.851 196.728 384.743 196.555 384.669C196.394 384.595 196.236 384.545 196.082 384.521C195.933 384.496 195.794 384.477 195.664 384.465V383.853H200.108V384.465C199.929 384.477 199.771 384.493 199.635 384.511C199.505 384.53 199.384 384.551 199.273 384.576C199.1 384.626 198.97 384.725 198.883 384.873C198.803 385.015 198.763 385.195 198.763 385.411V390.143L202.975 385.578C202.975 385.306 202.931 385.105 202.845 384.975C202.758 384.845 202.628 384.743 202.455 384.669C202.294 384.595 202.133 384.545 201.973 384.521C201.818 384.496 201.676 384.477 201.546 384.465V383.853H205.99V384.465C205.81 384.477 205.653 384.493 205.517 384.511C205.387 384.53 205.266 384.551 205.155 384.576C204.982 384.626 204.852 384.725 204.765 384.873C204.685 385.015 204.645 385.195 204.645 385.411V391.349C204.645 391.565 204.682 391.741 204.756 391.877C204.83 392.007 204.957 392.109 205.136 392.184C205.266 392.245 205.405 392.292 205.554 392.323C205.708 392.354 205.866 392.375 206.027 392.388V393ZM220.286 388.38C220.286 389.122 220.178 389.793 219.961 390.393C219.751 390.993 219.467 391.491 219.108 391.887C218.737 392.301 218.313 392.617 217.837 392.833C217.367 393.043 216.85 393.148 216.288 393.148C215.985 393.148 215.7 393.108 215.434 393.028C215.168 392.954 214.936 392.867 214.738 392.768H214.692V395.366C214.692 395.588 214.735 395.774 214.822 395.922C214.908 396.071 215.041 396.179 215.221 396.247C215.369 396.303 215.57 396.355 215.824 396.405C216.077 396.46 216.285 396.491 216.445 396.498V397.119H211.333V396.498C211.525 396.485 211.726 396.47 211.937 396.451C212.147 396.433 212.323 396.402 212.465 396.358C212.651 396.297 212.781 396.188 212.855 396.034C212.929 395.879 212.966 395.697 212.966 395.486V392.768H212.92C212.697 392.873 212.472 392.963 212.243 393.037C212.014 393.111 211.723 393.148 211.371 393.148C210.826 393.148 210.31 393.046 209.821 392.842C209.339 392.632 208.915 392.326 208.55 391.924C208.185 391.522 207.898 391.03 207.688 390.449C207.477 389.861 207.372 389.196 207.372 388.454C207.372 387.743 207.474 387.09 207.678 386.497C207.882 385.903 208.17 385.393 208.541 384.966C208.887 384.564 209.311 384.251 209.812 384.029C210.319 383.806 210.839 383.695 211.371 383.695C211.667 383.695 211.946 383.732 212.206 383.806C212.465 383.88 212.703 383.97 212.92 384.075H212.966V381.357C212.966 381.14 212.923 380.955 212.836 380.8C212.756 380.646 212.632 380.513 212.465 380.401C212.354 380.327 212.199 380.271 212.001 380.234C211.81 380.191 211.618 380.163 211.426 380.151V379.548L214.562 379.344L214.692 379.455V384.075H214.738C214.899 383.989 215.134 383.905 215.443 383.825C215.753 383.738 216.034 383.695 216.288 383.695C216.85 383.695 217.373 383.8 217.855 384.01C218.338 384.214 218.762 384.521 219.126 384.929C219.491 385.331 219.776 385.822 219.98 386.404C220.184 386.985 220.286 387.644 220.286 388.38ZM218.394 388.38C218.394 387.687 218.338 387.09 218.227 386.589C218.115 386.088 217.954 385.677 217.744 385.355C217.528 385.028 217.274 384.793 216.983 384.65C216.699 384.502 216.377 384.428 216.019 384.428C215.703 384.428 215.45 384.471 215.258 384.558C215.066 384.644 214.877 384.759 214.692 384.901V391.942C214.884 392.091 215.063 392.208 215.23 392.295C215.397 392.375 215.66 392.416 216.019 392.416C216.365 392.416 216.687 392.338 216.983 392.184C217.28 392.029 217.531 391.782 217.735 391.441C217.964 391.07 218.131 390.631 218.236 390.124C218.341 389.617 218.394 389.035 218.394 388.38ZM212.966 391.942V384.901C212.806 384.771 212.611 384.66 212.382 384.567C212.159 384.474 211.912 384.428 211.64 384.428C211.287 384.428 210.965 384.505 210.675 384.66C210.39 384.814 210.14 385.059 209.923 385.393C209.713 385.72 209.549 386.141 209.432 386.654C209.32 387.161 209.265 387.761 209.265 388.454C209.265 389.159 209.32 389.759 209.432 390.254C209.549 390.749 209.713 391.157 209.923 391.479C210.127 391.8 210.375 392.038 210.666 392.193C210.962 392.341 211.287 392.416 211.64 392.416C211.937 392.416 212.193 392.369 212.41 392.276C212.626 392.184 212.812 392.072 212.966 391.942ZM230.009 384.938C230.374 385.371 230.655 385.875 230.853 386.45C231.057 387.019 231.159 387.672 231.159 388.408C231.159 389.131 231.039 389.793 230.797 390.393C230.556 390.987 230.238 391.494 229.842 391.915C229.427 392.341 228.967 392.669 228.459 392.898C227.952 393.127 227.414 393.241 226.845 393.241C226.295 393.241 225.843 393.179 225.491 393.056C225.138 392.932 224.851 392.787 224.628 392.62H224.554V395.366C224.554 395.588 224.597 395.774 224.684 395.922C224.77 396.071 224.903 396.179 225.083 396.247C225.231 396.303 225.441 396.355 225.713 396.405C225.992 396.46 226.221 396.491 226.4 396.498V397.119H221.288V396.498C221.48 396.485 221.665 396.47 221.845 396.451C222.024 396.433 222.185 396.402 222.327 396.358C222.513 396.297 222.643 396.188 222.717 396.034C222.791 395.879 222.828 395.697 222.828 395.486V385.754C222.828 385.569 222.782 385.389 222.689 385.216C222.596 385.043 222.476 384.904 222.327 384.799C222.216 384.725 222.061 384.669 221.863 384.632C221.665 384.589 221.474 384.561 221.288 384.548V383.945L224.405 383.741L224.535 383.853V384.882L224.609 384.901C224.931 384.53 225.33 384.221 225.806 383.973C226.282 383.726 226.756 383.602 227.226 383.602C227.795 383.602 228.314 383.723 228.784 383.964C229.26 384.205 229.669 384.53 230.009 384.938ZM228.497 391.516C228.744 391.132 228.926 390.687 229.044 390.18C229.161 389.673 229.22 389.107 229.22 388.482C229.22 388.024 229.171 387.557 229.072 387.081C228.973 386.605 228.818 386.19 228.608 385.838C228.398 385.479 228.122 385.188 227.782 384.966C227.442 384.743 227.034 384.632 226.558 384.632C226.1 384.632 225.71 384.734 225.389 384.938C225.067 385.136 224.789 385.374 224.554 385.652V391.061C224.609 391.228 224.699 391.401 224.823 391.581C224.953 391.76 225.095 391.915 225.25 392.044C225.441 392.199 225.648 392.326 225.871 392.425C226.094 392.518 226.366 392.564 226.688 392.564C227.034 392.564 227.368 392.474 227.689 392.295C228.011 392.109 228.28 391.85 228.497 391.516ZM241.42 388.333C241.42 388.977 241.318 389.611 241.114 390.235C240.91 390.854 240.619 391.38 240.242 391.812C239.815 392.307 239.32 392.675 238.757 392.917C238.194 393.158 237.564 393.278 236.865 393.278C236.283 393.278 235.73 393.17 235.204 392.954C234.678 392.731 234.211 392.409 233.803 391.989C233.401 391.574 233.08 391.07 232.838 390.477C232.603 389.877 232.486 389.206 232.486 388.463C232.486 387.035 232.9 385.866 233.729 384.957C234.564 384.047 235.656 383.593 237.004 383.593C238.284 383.593 239.339 384.026 240.167 384.892C241.002 385.751 241.42 386.899 241.42 388.333ZM239.5 388.352C239.5 387.888 239.453 387.4 239.36 386.886C239.268 386.367 239.128 385.928 238.943 385.569C238.745 385.185 238.485 384.879 238.164 384.65C237.842 384.415 237.449 384.298 236.985 384.298C236.509 384.298 236.101 384.415 235.761 384.65C235.427 384.885 235.155 385.207 234.944 385.615C234.746 385.993 234.607 386.422 234.527 386.905C234.446 387.387 234.406 387.854 234.406 388.306C234.406 388.899 234.453 389.45 234.545 389.957C234.644 390.458 234.799 390.906 235.009 391.302C235.22 391.698 235.482 392.01 235.798 392.239C236.119 392.462 236.515 392.573 236.985 392.573C237.758 392.573 238.371 392.199 238.822 391.451C239.274 390.702 239.5 389.669 239.5 388.352ZM249.361 390.31C249.361 389.765 249.16 389.335 248.758 389.02C248.356 388.705 247.781 388.547 247.033 388.547C246.705 388.547 246.445 388.553 246.253 388.565C246.068 388.578 245.923 388.584 245.817 388.584V391.608C245.817 391.85 245.919 392.038 246.124 392.174C246.328 392.304 246.64 392.369 247.061 392.369C247.506 392.369 247.883 392.31 248.192 392.193C248.502 392.075 248.743 391.915 248.916 391.71C249.083 391.513 249.197 391.296 249.259 391.061C249.327 390.826 249.361 390.576 249.361 390.31ZM251.217 390.449C251.217 390.9 251.115 391.29 250.911 391.618C250.707 391.945 250.425 392.215 250.066 392.425C249.739 392.617 249.364 392.762 248.944 392.861C248.523 392.954 248.075 393 247.599 393H242.765V392.388C242.907 392.375 243.053 392.363 243.201 392.351C243.356 392.338 243.489 392.313 243.6 392.276C243.773 392.221 243.9 392.125 243.98 391.989C244.067 391.847 244.11 391.664 244.11 391.441V385.504C244.11 385.3 244.067 385.13 243.98 384.994C243.894 384.851 243.764 384.743 243.591 384.669C243.43 384.595 243.272 384.545 243.118 384.521C242.969 384.496 242.83 384.477 242.7 384.465V383.853C243.251 383.853 243.931 383.849 244.741 383.843C245.558 383.837 246.408 383.834 247.292 383.834C247.763 383.834 248.199 383.868 248.601 383.936C249.009 383.998 249.371 384.106 249.686 384.261C250.014 384.422 250.267 384.641 250.447 384.919C250.626 385.192 250.716 385.522 250.716 385.912C250.716 386.524 250.524 387.01 250.141 387.369C249.763 387.721 249.265 387.962 248.647 388.092V388.194C248.962 388.238 249.272 388.309 249.575 388.408C249.884 388.507 250.159 388.643 250.4 388.816C250.648 388.995 250.846 389.218 250.994 389.484C251.143 389.744 251.217 390.065 251.217 390.449ZM248.879 385.986C248.879 385.677 248.82 385.427 248.703 385.235C248.591 385.037 248.44 384.882 248.248 384.771C248.056 384.66 247.84 384.585 247.599 384.548C247.364 384.505 247.119 384.483 246.866 384.483C246.705 384.483 246.526 384.49 246.328 384.502C246.136 384.508 245.966 384.514 245.817 384.521V387.86H246.717C247.144 387.86 247.503 387.811 247.793 387.712C248.084 387.613 248.304 387.48 248.452 387.313C248.607 387.152 248.715 386.96 248.777 386.738C248.845 386.515 248.879 386.265 248.879 385.986ZM259.093 390.143C259.093 389.623 258.905 389.181 258.527 388.816C258.15 388.445 257.6 388.259 256.876 388.259C256.573 388.259 256.322 388.272 256.125 388.296C255.927 388.315 255.775 388.324 255.67 388.324V391.59C255.67 391.85 255.763 392.044 255.948 392.174C256.14 392.304 256.483 392.369 256.978 392.369C257.399 392.369 257.748 392.301 258.026 392.165C258.311 392.029 258.527 391.856 258.676 391.646C258.837 391.417 258.945 391.179 259 390.931C259.062 390.684 259.093 390.421 259.093 390.143ZM260.967 390.189C260.967 390.678 260.862 391.101 260.652 391.46C260.442 391.812 260.169 392.103 259.835 392.332C259.501 392.555 259.13 392.722 258.722 392.833C258.314 392.944 257.887 393 257.442 393H252.618V392.388C252.76 392.375 252.905 392.363 253.054 392.351C253.208 392.338 253.341 392.313 253.453 392.276C253.626 392.221 253.753 392.125 253.833 391.989C253.92 391.847 253.963 391.664 253.963 391.441V385.504C253.963 385.3 253.92 385.13 253.833 384.994C253.746 384.851 253.617 384.743 253.443 384.669C253.283 384.595 253.125 384.545 252.97 384.521C252.822 384.496 252.683 384.477 252.553 384.465V383.853H257.164V384.465C256.978 384.477 256.796 384.493 256.616 384.511C256.443 384.524 256.298 384.545 256.18 384.576C255.988 384.632 255.855 384.737 255.781 384.892C255.707 385.046 255.67 385.219 255.67 385.411V387.591C255.917 387.585 256.128 387.579 256.301 387.573C256.48 387.56 256.737 387.554 257.071 387.554C257.671 387.554 258.196 387.604 258.648 387.703C259.106 387.795 259.501 387.941 259.835 388.139C260.194 388.349 260.472 388.618 260.67 388.946C260.868 389.274 260.967 389.688 260.967 390.189ZM265.68 393H261.218V392.388C261.36 392.375 261.502 392.363 261.645 392.351C261.793 392.338 261.923 392.313 262.034 392.276C262.207 392.221 262.34 392.125 262.433 391.989C262.526 391.847 262.572 391.664 262.572 391.441V385.504C262.572 385.3 262.529 385.13 262.442 384.994C262.356 384.851 262.226 384.743 262.053 384.669C261.892 384.595 261.734 384.545 261.58 384.521C261.431 384.496 261.292 384.477 261.162 384.465V383.853H265.643V384.465C265.464 384.477 265.306 384.493 265.17 384.511C265.04 384.53 264.919 384.551 264.808 384.576C264.635 384.626 264.505 384.725 264.418 384.873C264.338 385.015 264.298 385.195 264.298 385.411V391.349C264.298 391.565 264.335 391.741 264.409 391.877C264.483 392.007 264.61 392.109 264.79 392.184C264.919 392.245 265.059 392.292 265.207 392.323C265.362 392.354 265.519 392.375 265.68 392.388V393ZM275.811 393H271.618V392.388C271.896 392.357 272.131 392.326 272.323 392.295C272.521 392.264 272.62 392.184 272.62 392.054C272.62 391.998 272.589 391.911 272.527 391.794C272.465 391.676 272.403 391.568 272.341 391.469C272.187 391.228 271.973 390.906 271.701 390.504C271.435 390.096 271.107 389.611 270.718 389.048C270.396 389.45 270.099 389.843 269.827 390.226C269.555 390.603 269.271 391.005 268.974 391.432C268.93 391.494 268.884 391.571 268.834 391.664C268.791 391.757 268.77 391.831 268.77 391.887C268.77 392.023 268.856 392.137 269.029 392.23C269.209 392.317 269.475 392.375 269.827 392.406V393H266.441V392.425C266.861 392.301 267.199 392.153 267.452 391.979C267.712 391.8 267.95 391.581 268.167 391.321C268.358 391.073 268.624 390.733 268.964 390.3C269.311 389.867 269.756 389.28 270.3 388.538C269.985 388.086 269.598 387.536 269.141 386.886C268.689 386.231 268.315 385.686 268.018 385.253C267.857 385.018 267.672 384.83 267.461 384.688C267.257 384.539 266.967 384.465 266.589 384.465V383.853H270.569V384.465C270.371 384.465 270.177 384.477 269.985 384.502C269.793 384.527 269.697 384.582 269.697 384.669C269.697 384.725 269.716 384.786 269.753 384.854C269.79 384.923 269.836 384.997 269.892 385.077C270.028 385.287 270.238 385.612 270.523 386.051C270.814 386.49 271.126 386.954 271.46 387.443C271.676 387.146 271.927 386.8 272.211 386.404C272.502 386.008 272.768 385.631 273.009 385.272C273.034 385.229 273.059 385.176 273.083 385.114C273.108 385.046 273.121 384.981 273.121 384.919C273.121 384.79 273.012 384.688 272.796 384.613C272.586 384.533 272.385 384.477 272.193 384.446V383.853H275.57V384.428C275.094 384.551 274.722 384.7 274.457 384.873C274.191 385.04 273.965 385.235 273.779 385.458C273.575 385.711 273.331 386.023 273.046 386.395C272.768 386.766 272.375 387.285 271.868 387.953C272.431 388.745 272.889 389.394 273.241 389.901C273.594 390.409 273.949 390.931 274.308 391.469C274.487 391.741 274.685 391.958 274.902 392.119C275.125 392.273 275.428 392.363 275.811 392.388V393ZM289.532 384.938C289.897 385.371 290.179 385.875 290.376 386.45C290.581 387.019 290.683 387.672 290.683 388.408C290.683 389.131 290.562 389.793 290.321 390.393C290.08 390.987 289.761 391.494 289.365 391.915C288.951 392.341 288.49 392.669 287.983 392.898C287.476 393.127 286.938 393.241 286.369 393.241C285.818 393.241 285.367 393.179 285.014 393.056C284.662 392.932 284.374 392.787 284.151 392.62H284.077V395.366C284.077 395.588 284.12 395.774 284.207 395.922C284.294 396.071 284.427 396.179 284.606 396.247C284.754 396.303 284.965 396.355 285.237 396.405C285.515 396.46 285.744 396.491 285.923 396.498V397.119H280.812V396.498C281.003 396.485 281.189 396.47 281.368 396.451C281.548 396.433 281.708 396.402 281.851 396.358C282.036 396.297 282.166 396.188 282.24 396.034C282.314 395.879 282.352 395.697 282.352 395.486V385.754C282.352 385.569 282.305 385.389 282.212 385.216C282.12 385.043 281.999 384.904 281.851 384.799C281.739 384.725 281.585 384.669 281.387 384.632C281.189 384.589 280.997 384.561 280.812 384.548V383.945L283.929 383.741L284.059 383.853V384.882L284.133 384.901C284.454 384.53 284.853 384.221 285.33 383.973C285.806 383.726 286.279 383.602 286.749 383.602C287.318 383.602 287.838 383.723 288.308 383.964C288.784 384.205 289.192 384.53 289.532 384.938ZM288.02 391.516C288.267 391.132 288.45 390.687 288.567 390.18C288.685 389.673 288.744 389.107 288.744 388.482C288.744 388.024 288.694 387.557 288.595 387.081C288.496 386.605 288.342 386.19 288.131 385.838C287.921 385.479 287.646 385.188 287.306 384.966C286.965 384.743 286.557 384.632 286.081 384.632C285.623 384.632 285.234 384.734 284.912 384.938C284.59 385.136 284.312 385.374 284.077 385.652V391.061C284.133 391.228 284.222 391.401 284.346 391.581C284.476 391.76 284.618 391.915 284.773 392.044C284.965 392.199 285.172 392.326 285.395 392.425C285.617 392.518 285.889 392.564 286.211 392.564C286.557 392.564 286.891 392.474 287.213 392.295C287.535 392.109 287.804 391.85 288.02 391.516ZM300.155 390.848C299.771 391.577 299.258 392.159 298.615 392.592C297.972 393.025 297.232 393.241 296.397 393.241C295.661 393.241 295.015 393.111 294.458 392.852C293.908 392.592 293.453 392.239 293.095 391.794C292.736 391.349 292.467 390.829 292.288 390.235C292.114 389.642 292.028 389.014 292.028 388.352C292.028 387.758 292.121 387.177 292.306 386.608C292.498 386.033 292.776 385.516 293.141 385.059C293.494 384.619 293.93 384.267 294.449 384.001C294.975 383.729 295.562 383.593 296.212 383.593C296.88 383.593 297.452 383.698 297.928 383.908C298.404 384.118 298.791 384.406 299.088 384.771C299.372 385.117 299.583 385.526 299.719 385.996C299.861 386.466 299.932 386.976 299.932 387.526V388.139H293.874C293.874 388.739 293.93 389.283 294.041 389.771C294.159 390.26 294.341 390.69 294.588 391.061C294.83 391.42 295.145 391.704 295.535 391.915C295.924 392.119 296.388 392.221 296.926 392.221C297.477 392.221 297.95 392.094 298.346 391.84C298.748 391.581 299.134 391.117 299.505 390.449L300.155 390.848ZM298.104 387.359C298.104 387.013 298.074 386.642 298.012 386.246C297.956 385.85 297.863 385.519 297.733 385.253C297.591 384.969 297.396 384.737 297.149 384.558C296.902 384.378 296.583 384.289 296.193 384.289C295.544 384.289 295.003 384.561 294.57 385.105C294.143 385.643 293.911 386.395 293.874 387.359H298.104ZM316.334 393H301.194V392.388C301.336 392.375 301.488 392.363 301.648 392.351C301.815 392.338 301.955 392.313 302.066 392.276C302.239 392.221 302.366 392.125 302.446 391.989C302.533 391.847 302.576 391.664 302.576 391.441V385.504C302.576 385.3 302.539 385.13 302.465 384.994C302.391 384.858 302.264 384.749 302.084 384.669C301.924 384.595 301.766 384.545 301.611 384.521C301.463 384.496 301.324 384.477 301.194 384.465V383.853H305.573V384.465C305.393 384.477 305.245 384.493 305.127 384.511C305.01 384.53 304.896 384.551 304.784 384.576C304.592 384.632 304.463 384.74 304.395 384.901C304.333 385.062 304.302 385.232 304.302 385.411V391.386C304.302 391.72 304.379 391.952 304.534 392.082C304.688 392.205 304.902 392.27 305.174 392.276C305.316 392.276 305.468 392.283 305.628 392.295C305.789 392.301 305.987 392.304 306.222 392.304C306.408 392.304 306.578 392.301 306.732 392.295C306.887 392.289 307.082 392.283 307.317 392.276C307.583 392.264 307.744 392.205 307.799 392.1C307.855 391.995 307.883 391.812 307.883 391.553V385.504C307.883 385.3 307.852 385.13 307.79 384.994C307.728 384.851 307.611 384.743 307.438 384.669C307.277 384.595 307.125 384.545 306.983 384.521C306.847 384.496 306.711 384.477 306.575 384.465V383.853H310.889V384.465C310.709 384.477 310.555 384.493 310.425 384.511C310.301 384.53 310.184 384.551 310.072 384.576C309.887 384.626 309.763 384.731 309.701 384.892C309.639 385.052 309.608 385.226 309.608 385.411V391.404C309.608 391.738 309.686 391.967 309.84 392.091C310.001 392.208 310.215 392.27 310.48 392.276C310.617 392.276 310.777 392.283 310.963 392.295C311.155 392.301 311.349 392.304 311.547 392.304C311.677 392.304 311.841 392.301 312.039 392.295C312.243 392.289 312.438 392.283 312.624 392.276C312.889 392.264 313.05 392.205 313.106 392.1C313.162 391.995 313.189 391.812 313.189 391.553V385.504C313.189 385.3 313.159 385.13 313.097 384.994C313.035 384.851 312.917 384.743 312.744 384.669C312.583 384.595 312.432 384.545 312.29 384.521C312.153 384.496 312.017 384.477 311.881 384.465V383.853H316.26V384.465C316.081 384.477 315.923 384.493 315.787 384.511C315.657 384.53 315.537 384.551 315.425 384.576C315.252 384.626 315.122 384.725 315.036 384.873C314.955 385.015 314.915 385.195 314.915 385.411V391.349C314.915 391.565 314.952 391.741 315.026 391.877C315.101 392.007 315.227 392.109 315.407 392.184C315.543 392.245 315.688 392.292 315.843 392.323C316.004 392.354 316.167 392.375 316.334 392.388V393ZM325.742 390.848C325.358 391.577 324.845 392.159 324.202 392.592C323.558 393.025 322.819 393.241 321.984 393.241C321.248 393.241 320.602 393.111 320.045 392.852C319.495 392.592 319.04 392.239 318.682 391.794C318.323 391.349 318.054 390.829 317.875 390.235C317.701 389.642 317.615 389.014 317.615 388.352C317.615 387.758 317.708 387.177 317.893 386.608C318.085 386.033 318.363 385.516 318.728 385.059C319.081 384.619 319.517 384.267 320.036 384.001C320.562 383.729 321.149 383.593 321.799 383.593C322.467 383.593 323.039 383.698 323.515 383.908C323.991 384.118 324.378 384.406 324.675 384.771C324.959 385.117 325.17 385.526 325.306 385.996C325.448 386.466 325.519 386.976 325.519 387.526V388.139H319.461C319.461 388.739 319.517 389.283 319.628 389.771C319.745 390.26 319.928 390.69 320.175 391.061C320.417 391.42 320.732 391.704 321.122 391.915C321.511 392.119 321.975 392.221 322.513 392.221C323.064 392.221 323.537 392.094 323.933 391.84C324.335 391.581 324.721 391.117 325.092 390.449L325.742 390.848ZM323.691 387.359C323.691 387.013 323.66 386.642 323.599 386.246C323.543 385.85 323.45 385.519 323.32 385.253C323.178 384.969 322.983 384.737 322.736 384.558C322.488 384.378 322.17 384.289 321.78 384.289C321.131 384.289 320.59 384.561 320.157 385.105C319.73 385.643 319.498 386.395 319.461 387.359H323.691ZM337.051 393H332.579V392.388C332.721 392.375 332.867 392.363 333.015 392.351C333.17 392.338 333.303 392.313 333.414 392.276C333.587 392.221 333.72 392.125 333.813 391.989C333.906 391.847 333.952 391.664 333.952 391.441V388.528H329.879V391.349C329.879 391.559 329.923 391.732 330.009 391.868C330.096 392.004 330.226 392.109 330.399 392.184C330.529 392.245 330.668 392.292 330.816 392.323C330.971 392.354 331.129 392.375 331.29 392.388V393H326.818V392.388C326.96 392.375 327.105 392.363 327.254 392.351C327.409 392.338 327.542 392.313 327.653 392.276C327.826 392.221 327.953 392.125 328.033 391.989C328.12 391.847 328.163 391.664 328.163 391.441V385.504C328.163 385.3 328.12 385.13 328.033 384.994C327.947 384.851 327.817 384.743 327.644 384.669C327.483 384.595 327.325 384.545 327.17 384.521C327.022 384.496 326.883 384.477 326.753 384.465V383.853H331.225V384.465C331.045 384.477 330.888 384.493 330.751 384.511C330.622 384.53 330.501 384.551 330.39 384.576C330.216 384.626 330.087 384.725 330 384.873C329.92 385.015 329.879 385.195 329.879 385.411V387.768H333.952V385.504C333.952 385.3 333.909 385.13 333.822 384.994C333.736 384.851 333.606 384.743 333.433 384.669C333.272 384.595 333.114 384.545 332.959 384.521C332.811 384.496 332.672 384.477 332.542 384.465V383.853H337.014V384.465C336.834 384.477 336.677 384.493 336.541 384.511C336.411 384.53 336.29 384.551 336.179 384.576C336.006 384.626 335.876 384.725 335.789 384.873C335.709 385.015 335.668 385.195 335.668 385.411V391.349C335.668 391.565 335.706 391.741 335.78 391.877C335.854 392.007 335.981 392.109 336.16 392.184C336.29 392.245 336.429 392.292 336.578 392.323C336.732 392.354 336.89 392.375 337.051 392.388V393ZM348.694 393H344.25V392.388C344.392 392.375 344.538 392.363 344.686 392.351C344.841 392.338 344.974 392.313 345.085 392.276C345.258 392.221 345.391 392.125 345.484 391.989C345.577 391.847 345.623 391.664 345.623 391.441V386.636L341.411 391.191V391.349C341.411 391.559 341.454 391.732 341.541 391.868C341.628 392.004 341.757 392.109 341.931 392.184C342.067 392.245 342.209 392.292 342.357 392.323C342.512 392.354 342.673 392.375 342.84 392.388V393H338.396V392.388C338.538 392.375 338.684 392.363 338.832 392.351C338.987 392.338 339.12 392.313 339.231 392.276C339.404 392.221 339.531 392.125 339.611 391.989C339.698 391.847 339.741 391.664 339.741 391.441V385.504C339.741 385.3 339.698 385.13 339.611 384.994C339.525 384.851 339.395 384.743 339.222 384.669C339.061 384.595 338.903 384.545 338.749 384.521C338.6 384.496 338.461 384.477 338.331 384.465V383.853H342.775V384.465C342.596 384.477 342.438 384.493 342.302 384.511C342.172 384.53 342.051 384.551 341.94 384.576C341.767 384.626 341.637 384.725 341.55 384.873C341.47 385.015 341.43 385.195 341.43 385.411V390.143L345.642 385.578C345.642 385.306 345.598 385.105 345.512 384.975C345.425 384.845 345.295 384.743 345.122 384.669C344.961 384.595 344.8 384.545 344.64 384.521C344.485 384.496 344.343 384.477 344.213 384.465V383.853H348.657V384.465C348.477 384.477 348.32 384.493 348.184 384.511C348.054 384.53 347.933 384.551 347.822 384.576C347.649 384.626 347.519 384.725 347.432 384.873C347.352 385.015 347.312 385.195 347.312 385.411V391.349C347.312 391.565 347.349 391.741 347.423 391.877C347.497 392.007 347.624 392.109 347.803 392.184C347.933 392.245 348.072 392.292 348.221 392.323C348.375 392.354 348.533 392.375 348.694 392.388V393ZM360.328 393H355.884V392.388C356.026 392.375 356.171 392.363 356.32 392.351C356.474 392.338 356.607 392.313 356.719 392.276C356.892 392.221 357.025 392.125 357.118 391.989C357.21 391.847 357.257 391.664 357.257 391.441V386.636L353.045 391.191V391.349C353.045 391.559 353.088 391.732 353.175 391.868C353.261 392.004 353.391 392.109 353.564 392.184C353.701 392.245 353.843 392.292 353.991 392.323C354.146 392.354 354.307 392.375 354.474 392.388V393H350.03V392.388C350.172 392.375 350.317 392.363 350.466 392.351C350.62 392.338 350.753 392.313 350.865 392.276C351.038 392.221 351.165 392.125 351.245 391.989C351.332 391.847 351.375 391.664 351.375 391.441V385.504C351.375 385.3 351.332 385.13 351.245 384.994C351.159 384.851 351.029 384.743 350.855 384.669C350.695 384.595 350.537 384.545 350.382 384.521C350.234 384.496 350.095 384.477 349.965 384.465V383.853H354.409V384.465C354.229 384.477 354.072 384.493 353.936 384.511C353.806 384.53 353.685 384.551 353.574 384.576C353.401 384.626 353.271 384.725 353.184 384.873C353.104 385.015 353.063 385.195 353.063 385.411V390.143L357.275 385.578C357.275 385.306 357.232 385.105 357.146 384.975C357.059 384.845 356.929 384.743 356.756 384.669C356.595 384.595 356.434 384.545 356.273 384.521C356.119 384.496 355.977 384.477 355.847 384.465V383.853H360.291V384.465C360.111 384.477 359.953 384.493 359.817 384.511C359.688 384.53 359.567 384.551 359.456 384.576C359.282 384.626 359.153 384.725 359.066 384.873C358.986 385.015 358.945 385.195 358.945 385.411V391.349C358.945 391.565 358.982 391.741 359.057 391.877C359.131 392.007 359.258 392.109 359.437 392.184C359.567 392.245 359.706 392.292 359.854 392.323C360.009 392.354 360.167 392.375 360.328 392.388V393ZM358.287 380.095C358.287 380.287 358.228 380.516 358.11 380.782C357.999 381.048 357.832 381.28 357.609 381.478C357.35 381.706 357.034 381.892 356.663 382.034C356.298 382.176 355.8 382.248 355.169 382.248C354.576 382.248 354.084 382.176 353.694 382.034C353.305 381.886 352.986 381.7 352.739 381.478C352.504 381.261 352.334 381.029 352.229 380.782C352.13 380.528 352.08 380.299 352.08 380.095C352.08 379.798 352.167 379.557 352.34 379.372C352.519 379.18 352.733 379.084 352.98 379.084C353.209 379.084 353.422 379.152 353.62 379.288C353.818 379.424 353.917 379.647 353.917 379.956C353.917 380.135 353.88 380.336 353.806 380.559C353.731 380.776 353.673 380.933 353.629 381.032C353.796 381.236 354.016 381.388 354.288 381.487C354.566 381.586 354.86 381.635 355.169 381.635C355.442 381.635 355.729 381.589 356.032 381.496C356.335 381.397 356.57 381.243 356.737 381.032C356.688 380.915 356.626 380.748 356.552 380.531C356.484 380.309 356.45 380.117 356.45 379.956C356.45 379.647 356.549 379.424 356.747 379.288C356.944 379.152 357.155 379.084 357.377 379.084C357.631 379.084 357.844 379.18 358.018 379.372C358.197 379.557 358.287 379.798 358.287 380.095Z" fill="#FBF5EE"></path><defs><clipPath id="clip0_917_4324"><rect width="151" height="163" fill="white" transform="translate(150 70)"></rect></clipPath></defs></svg> 