<?xml version="1.0" encoding="UTF-8"?> <svg xmlns="http://www.w3.org/2000/svg" width="600" height="390" viewBox="0 0 600 390" fill="none"><path d="M306.453 343.236C304.486 343.666 302.622 342.176 302.608 340.162L300.784 66.5178L285.951 70.6259C284.579 71.0059 283.629 72.2547 283.629 73.6785V89.8782V364.671C283.629 366.698 285.505 368.203 287.483 367.764L485.558 323.787L500.499 320.47C501.948 320.148 502.98 318.862 502.98 317.377V300.234L306.453 343.236Z" fill="#64D8D7"></path><path d="M300.784 66.5178L302.608 340.162C302.622 342.176 304.486 343.666 306.453 343.236L502.98 300.234M300.784 66.5178L300.672 49.6974C300.662 48.1948 301.709 46.8919 303.179 46.5785L517.761 0.816398C519.732 0.396062 521.589 1.89894 521.589 3.91425V17.8173M300.784 66.5178L521.589 17.8173M300.784 66.5178L285.951 70.6259C284.579 71.0059 283.629 72.2547 283.629 73.6785V89.8782M521.589 17.8173L521.589 130M502.98 300.234L519.098 296.707C520.552 296.389 521.589 295.102 521.589 293.613L521.589 170M502.98 300.234V317.377C502.98 318.862 501.948 320.148 500.499 320.47L485.558 323.787M485.558 323.787L287.483 367.764C285.505 368.203 283.629 366.698 283.629 364.671V89.8782M485.558 323.787V341.5C485.558 342.998 484.509 344.292 483.042 344.6L270.819 389.197C268.85 389.611 267 388.109 267 386.098V95.333C267 93.7846 268.119 92.4632 269.647 92.2086L283.629 89.8782" stroke="#333333"></path><path d="M395.284 123.951C395.284 124.109 395.461 124.201 395.59 124.111L399.244 121.553V83.1473C396.787 84.6211 395.284 87.2757 395.284 90.1403V123.951Z" fill="#387FE7"></path><path d="M419.874 106.5C419.847 106.505 419.821 106.516 419.798 106.532L415.477 109.573L473.06 98.5394C474.109 98.3383 474.868 97.4206 474.868 96.3523L419.874 106.5Z" fill="#387FE7"></path><path d="M399.244 121.553L395.59 124.111C395.461 124.201 395.284 124.109 395.284 123.951V90.1403C395.284 87.2757 396.787 84.6211 399.244 83.1473V83.1473M399.244 121.553V83.1473M399.244 121.553L415.477 109.573M399.244 83.1473V83.1473C401.208 77.4985 405.996 73.2967 411.852 72.0813L474.204 59.1404C480.47 57.8397 486.35 62.6246 486.35 69.025V82.5575C486.35 89.3231 481.521 95.1247 474.868 96.3523V96.3523M415.477 109.573L419.798 106.532C419.821 106.516 419.847 106.505 419.874 106.5L474.868 96.3523M415.477 109.573L473.06 98.5394C474.109 98.3383 474.868 97.4206 474.868 96.3523V96.3523" stroke="#333333"></path><path d="M446.36 194.429C446.36 194.586 446.538 194.678 446.666 194.588L450.32 192.03V153.624C447.863 155.098 446.36 157.753 446.36 160.617V194.429Z" fill="#387FE7"></path><path d="M470.951 176.977C470.923 176.982 470.897 176.993 470.874 177.009L466.553 180.05L524.136 169.016C525.186 168.815 525.944 167.898 525.944 166.829L470.951 176.977Z" fill="#387FE7"></path><path d="M450.32 192.03L446.666 194.588C446.538 194.678 446.36 194.586 446.36 194.429V160.617C446.36 157.753 447.863 155.098 450.32 153.624V153.624M450.32 192.03V153.624M450.32 192.03L466.553 180.05M450.32 153.624V153.624C452.285 147.976 457.072 143.774 462.928 142.558L525.28 129.617C531.547 128.317 537.426 133.102 537.426 139.502V153.035C537.426 159.8 532.597 165.602 525.944 166.829V166.829M466.553 180.05L470.874 177.009C470.897 176.993 470.923 176.982 470.951 176.977L525.944 166.829M466.553 180.05L524.136 169.016C525.186 168.815 525.944 167.898 525.944 166.829V166.829" stroke="#333333"></path><path d="M395.68 290.246C395.68 290.403 395.857 290.495 395.986 290.405L399.64 287.848V249.442C397.183 250.916 395.68 253.57 395.68 256.435V290.246Z" fill="#387FE7"></path><path d="M420.27 272.794C420.243 272.8 420.217 272.81 420.194 272.827L415.873 275.867L473.456 264.834C474.505 264.633 475.264 263.715 475.264 262.647L420.27 272.794Z" fill="#387FE7"></path><path d="M399.64 287.848L395.986 290.405C395.857 290.495 395.68 290.403 395.68 290.246V256.435C395.68 253.57 397.183 250.916 399.64 249.442V249.442M399.64 287.848V249.442M399.64 287.848L415.873 275.867M399.64 249.442V249.442C401.604 243.793 406.392 239.591 412.248 238.376L474.599 225.435C480.866 224.134 486.746 228.919 486.746 235.319V248.852C486.746 255.618 481.917 261.419 475.264 262.647V262.647M415.873 275.867L420.194 272.827C420.217 272.81 420.243 272.8 420.27 272.794L475.264 262.647M415.873 275.867L473.456 264.834C474.505 264.633 475.264 263.715 475.264 262.647V262.647" stroke="#333333"></path><path d="M417.457 264.091C423.66 260.528 435.67 252.134 434.086 247.066C432.107 240.731 423.792 254.985 428.939 258.152C434.086 261.32 445.173 254.193 446.36 248.65C447.548 243.106 443.985 243.898 442.401 247.066C440.817 250.233 442.401 259.736 451.508 254.985C460.614 250.233 461.802 244.294 461.802 242.315C461.802 240.335 456.18 242.315 456.259 247.066C456.337 251.817 460.218 254.985 464.97 254.985" stroke="#333333"></path><path d="M516.046 143.726C509.843 147.289 497.832 155.683 499.416 160.751C501.396 167.086 509.711 152.833 504.563 149.665C499.416 146.498 488.33 153.624 487.142 159.168C485.954 164.711 489.518 163.919 491.101 160.751C492.685 157.584 491.101 148.081 481.995 152.833C472.888 157.584 471.7 163.523 471.7 165.503C471.7 167.482 477.322 165.503 477.244 160.751C477.165 156 473.284 152.833 468.533 152.833" stroke="#333333"></path><path d="M468.533 71.6649C462.33 75.2283 450.32 83.6223 451.904 88.6903C453.883 95.0253 462.198 80.7715 457.051 77.604C451.904 74.4365 440.817 81.5634 439.629 87.1065C438.442 92.6497 442.005 91.8578 443.589 88.6903C445.173 85.5228 443.589 76.0202 434.482 80.7715C425.376 85.5227 424.188 91.4618 424.188 93.4415C424.188 95.4212 429.809 93.4416 429.731 88.6903C429.652 83.939 425.772 80.7715 421.02 80.7715" stroke="#333333"></path><circle cx="318.333" cy="53.962" r="4.25127" transform="rotate(-3.18374 318.333 53.962)" stroke="#333333"></circle><circle cx="334.717" cy="49.8768" r="4.25127" transform="rotate(-3.18374 334.717 49.8768)" stroke="#333333"></circle><circle cx="351.188" cy="46.5814" r="4.75127" transform="rotate(-3.18374 351.188 46.5814)" fill="#387FE7"></circle><path d="M497.82 54.073L496.654 75.0649C496.648 75.1594 496.712 75.2439 496.804 75.2652L501.626 76.3778C501.721 76.3998 501.817 76.3477 501.851 76.2562L509.236 56.4357C509.277 56.324 509.209 56.2015 509.093 56.1774L498.054 53.8934C497.937 53.8693 497.827 53.9544 497.82 54.073Z" stroke="#333333"></path><path d="M492.323 87.7202L493.829 79.8156C493.852 79.6954 493.979 79.626 494.092 79.6714L501.63 82.6865C501.722 82.7234 501.772 82.8236 501.745 82.9191L499.863 89.6933C499.835 89.7958 499.729 89.8564 499.627 89.8293L492.465 87.9446C492.366 87.9186 492.304 87.8206 492.323 87.7202Z" fill="#387FE7" stroke="#333333"></path><path d="M494.914 226.4L486.904 222.204C486.815 222.157 486.774 222.053 486.815 221.961C488.237 218.75 493.324 212.788 502.98 213.411C515.254 214.203 514.066 224.497 514.066 226.477C514.066 230.436 509 235.5 508.523 236.771C508.205 237.619 508.492 239.844 508.521 240.967C508.523 241.06 508.456 241.139 508.365 241.157L500.41 242.672C500.3 242.693 500.196 242.617 500.181 242.507L500.072 241.691C499.644 238.481 500.229 235.238 501.424 232.229C504.089 225.516 503.7 222.451 501.396 222.122C499.238 221.813 496.406 224.729 495.16 226.346C495.102 226.421 494.999 226.444 494.914 226.4Z" fill="#387FE7" stroke="#333333"></path><circle cx="506.939" cy="251.026" r="5.43909" stroke="#333333"></circle><circle cx="42.4319" cy="317.432" r="8" fill="#387FE7"></circle><circle cx="242.378" cy="17.1282" r="7" fill="#387FE7"></circle><circle cx="4.25653" cy="119.257" r="4" fill="#333333"></circle><circle cx="240.257" cy="365.257" r="4" fill="#333333"></circle><path d="M330.454 147.574C281.788 94.381 238.166 88.6162 215.692 93.6501C209.505 95.0359 203.345 96.8987 197.007 97.0991C96.1488 100.287 86.6508 78.4429 78.6962 70.4882C57.1238 48.9158 64.7552 27.0251 62.295 15.5443C60.3388 6.41525 53.3596 10.5727 50.0541 13.8444C50.0138 13.8844 49.9837 13.9313 49.9636 13.9844C44.7703 27.7581 51.0949 47.5425 54.9144 55.7272C81.6714 108.589 156.631 117.143 191.319 114.809C191.595 114.791 191.789 115.059 191.72 115.326C182.985 149.346 195.991 161.581 200.885 173.816C204.189 182.076 201.561 187.833 199.015 190.601C198.221 191.463 197.651 192.577 197.841 193.733C199.78 205.533 210.086 218.117 217.977 225.825C220.864 228.644 225.32 228.823 228.645 226.537C232.778 223.695 233.803 218.029 230.926 213.92L221.612 200.614C219.856 198.106 218.831 195.159 218.651 192.102C218.307 186.246 220.645 180.551 225.005 176.627L226.703 175.099C231.537 170.748 238.338 169.234 244.357 171.698C250.512 174.219 257.589 177.596 262.389 181.196C272.23 188.577 266.49 188.577 264.029 207.438C262.064 222.503 270.29 238.821 274.669 245.131C274.684 245.151 274.695 245.172 274.705 245.195C279.087 255.045 289.294 274.024 295.192 271.403C301.096 268.779 302.572 263.202 299.292 255.002L285.045 228.09C284.869 227.758 285.202 227.388 285.55 227.527L329.381 245.06C329.534 245.121 329.634 245.262 329.634 245.427V286.164C329.634 293.544 317.333 305.845 315.693 314.046C314.381 320.606 324.186 323.886 327.994 318.966C352.323 287.531 386.874 209.243 330.454 147.574Z" fill="#333333" stroke="#333333" stroke-width="0.805567"></path><path d="M284.518 191.197L305.912 165.615L385.398 171.355L401.987 190.546C403.848 192.698 404.2 195.782 402.842 198.282C395.163 212.422 379.352 238.25 343.977 235.93C308.067 233.576 289.623 211.285 283.468 197.661C282.492 195.501 282.997 193.016 284.518 191.197Z" fill="white"></path><path d="M366.307 115.206C376.598 119.709 384.531 151.385 387.21 166.661L407.074 190.808C408.842 192.958 409.154 195.981 407.618 198.303C398.703 211.786 376.331 234.479 340.858 232.152C304.948 229.798 286.504 207.507 280.349 193.883C279.373 191.723 279.878 189.238 281.399 187.419L302.793 161.837C307.617 145.222 319.355 112.634 327.716 115.206C336.077 117.779 336.024 145.222 334.952 158.621H354.247C353.979 142.274 356.016 110.704 366.307 115.206Z" fill="#333333"></path><path d="M361.425 185.86C353.182 192.153 354.765 202.423 357.687 208.118C358.324 209.359 359.567 210.147 360.942 210.387C386.55 214.859 392.532 200.869 392.306 192.761C392.299 192.508 392.215 192.266 392.067 192.061C384.758 181.896 369.875 179.408 361.425 185.86Z" fill="white"></path><path d="M326.722 185.86C335.701 192.716 333.021 204.289 329.651 209.529C329.462 209.822 329.147 210.021 328.805 210.089C301.845 215.435 295.611 201.036 295.841 192.761C295.848 192.508 295.933 192.266 296.081 192.061C303.389 181.896 318.272 179.408 326.722 185.86Z" fill="white"></path><path d="M339.92 212.104L342.596 216.027L346.774 212.199C347.142 211.862 346.904 211.249 346.405 211.249H340.371C339.932 211.249 339.672 211.741 339.92 212.104Z" fill="white"></path><path d="M342.596 216.027L339.92 212.104C339.672 211.741 339.932 211.249 340.371 211.249H346.405C346.904 211.249 347.142 211.862 346.774 212.199L342.596 216.027ZM342.596 216.027C341.292 218.018 337.511 220.806 332.818 216.027M342.596 216.027C344.986 218.616 351.201 222.12 356.937 215.43" stroke="white" stroke-width="1.64012" stroke-linecap="round" stroke-linejoin="round"></path><ellipse cx="321.248" cy="198.919" rx="7.40449" ry="9.04993" fill="#333333"></ellipse><ellipse cx="366.498" cy="198.919" rx="7.40449" ry="9.04993" fill="#333333"></ellipse><path d="M120.5 321.114C120.5 320.407 120.993 319.797 121.683 319.647L203.183 302.013C204.117 301.811 205 302.523 205 303.479V357.914C205 358.611 204.52 359.216 203.842 359.374L122.342 378.439C121.401 378.659 120.5 377.945 120.5 376.978V321.114Z" fill="white" stroke="#333333"></path><path d="M127.5 307.114C127.5 306.407 127.993 305.797 128.683 305.647L210.183 288.013C211.117 287.811 212 288.523 212 289.479V343.914C212 344.611 211.52 345.216 210.842 345.374L129.342 364.439C128.401 364.659 127.5 363.945 127.5 362.978V307.114Z" fill="#64D8D7" stroke="#333333"></path><path d="M136.5 347.87V288.903L221 270.62V328.103L136.5 347.87Z" fill="white" stroke="#333333"></path><path d="M34.5 191.114C34.5 190.407 34.9926 189.797 35.6828 189.647L117.183 172.013C118.117 171.811 119 172.523 119 173.479V227.914C119 228.611 118.52 229.216 117.842 229.374L36.3417 248.439C35.4006 248.659 34.5 247.945 34.5 246.978V191.114Z" fill="white" stroke="#333333"></path><path d="M41.5 177.114C41.5 176.407 41.9926 175.797 42.6828 175.647L124.183 158.013C125.117 157.811 126 158.523 126 159.479V213.914C126 214.611 125.52 215.216 124.842 215.374L43.3417 234.439C42.4006 234.659 41.5 233.945 41.5 232.978V177.114Z" fill="#64D8D7" stroke="#333333"></path><path d="M50.5 217.87V158.903L135 140.62V198.103L50.5 217.87Z" fill="white" stroke="#333333"></path></svg> 