<?xml version="1.0" encoding="UTF-8"?> <svg xmlns="http://www.w3.org/2000/svg" width="451" height="467" viewBox="0 0 451 467" fill="none"><rect width="451" height="467" fill="black" fill-opacity="0.5"></rect><g clip-path="url(#clip0_926_4325)"><path d="M205.548 70H245.679L301 233H262.91L244.318 170.555C206.438 172.692 168.746 200.03 150 233L205.548 70ZM244.318 170.555L225.5 107.88L206.228 170.555H244.318Z" fill="#FBF5EE"></path></g><path d="M146.75 343H128.281V340.781C129.906 340.677 131.25 340.469 132.312 340.156C133.396 339.844 133.938 339.458 133.938 339C133.938 338.812 133.917 338.583 133.875 338.312C133.833 338.042 133.771 337.802 133.688 337.594L130 327.656H114.469C113.885 329.115 113.406 330.385 113.031 331.469C112.677 332.552 112.354 333.552 112.062 334.469C111.792 335.365 111.604 336.094 111.5 336.656C111.396 337.219 111.344 337.677 111.344 338.031C111.344 338.865 112 339.51 113.312 339.969C114.625 340.427 116.104 340.698 117.75 340.781V343H101.062V340.781C101.604 340.74 102.281 340.625 103.094 340.438C103.906 340.229 104.573 339.958 105.094 339.625C105.927 339.062 106.573 338.479 107.031 337.875C107.49 337.25 107.938 336.396 108.375 335.312C110.604 329.75 113.062 323.5 115.75 316.562C118.438 309.625 120.833 303.448 122.938 298.031H125.438L140.219 336.281C140.531 337.094 140.885 337.75 141.281 338.25C141.677 338.75 142.229 339.24 142.938 339.719C143.417 340.01 144.042 340.26 144.812 340.469C145.583 340.656 146.229 340.76 146.75 340.781V343ZM128.875 324.875L122.156 307.688L115.562 324.875H128.875ZM190.812 343H170.062V340.781C171.771 340.74 173.146 340.583 174.188 340.312C175.25 340.021 175.781 339.583 175.781 339C175.781 338.688 175.542 338.042 175.062 337.062C174.583 336.083 173.969 334.99 173.219 333.781C172.385 332.448 171.396 330.885 170.25 329.094C169.104 327.281 167.969 325.552 166.844 323.906C165.01 326.323 162.927 329.24 160.594 332.656C158.26 336.052 157.094 338.052 157.094 338.656C157.094 339.344 157.406 339.854 158.031 340.188C158.677 340.5 160.083 340.698 162.25 340.781V343H145.688V340.781C146.229 340.74 146.917 340.667 147.75 340.562C148.604 340.438 149.302 340.24 149.844 339.969C150.927 339.385 151.792 338.76 152.438 338.094C153.104 337.406 153.771 336.604 154.438 335.688C155.771 333.854 157.479 331.573 159.562 328.844C161.646 326.094 163.49 323.594 165.094 321.344C163.885 319.573 162.344 317.333 160.469 314.625C158.594 311.896 156.594 308.979 154.469 305.875C153.573 304.562 152.865 303.635 152.344 303.094C151.844 302.552 151.167 302.083 150.312 301.688C149.812 301.458 149.115 301.281 148.219 301.156C147.344 301.01 146.646 300.917 146.125 300.875V298.656H166.656V300.875C165.448 300.917 164.188 301.073 162.875 301.344C161.583 301.594 160.938 301.99 160.938 302.531C160.938 302.927 161.198 303.625 161.719 304.625C162.24 305.604 162.854 306.656 163.562 307.781C164.292 308.948 165.104 310.24 166 311.656C166.896 313.073 167.99 314.708 169.281 316.562C171.635 313.375 173.667 310.5 175.375 307.938C177.083 305.375 177.938 303.708 177.938 302.938C177.938 302.271 177.542 301.781 176.75 301.469C175.979 301.156 174.667 300.958 172.812 300.875V298.656H189.344V300.875C188.823 300.896 188.135 300.979 187.281 301.125C186.448 301.25 185.75 301.438 185.188 301.688C184.104 302.208 183.292 302.771 182.75 303.375C182.229 303.979 181.521 304.854 180.625 306C178.958 308.146 177.417 310.167 176 312.062C174.604 313.938 172.917 316.229 170.938 318.938C172.604 321.312 174.458 324.01 176.5 327.031C178.562 330.052 180.531 332.938 182.406 335.688C183.052 336.625 183.792 337.521 184.625 338.375C185.458 339.208 186.135 339.781 186.656 340.094C187.156 340.385 187.823 340.573 188.656 340.656C189.51 340.719 190.229 340.76 190.812 340.781V343ZM213.219 343H193.25V340.781C193.812 340.74 194.625 340.677 195.688 340.594C196.75 340.51 197.5 340.385 197.938 340.219C198.625 339.948 199.125 339.583 199.438 339.125C199.75 338.646 199.906 337.99 199.906 337.156V305.031C199.906 304.302 199.792 303.698 199.562 303.219C199.333 302.719 198.792 302.302 197.938 301.969C197.312 301.719 196.521 301.49 195.562 301.281C194.625 301.052 193.854 300.917 193.25 300.875V298.656H213.219V300.875C212.573 300.896 211.802 300.979 210.906 301.125C210.01 301.25 209.229 301.417 208.562 301.625C207.771 301.875 207.24 302.281 206.969 302.844C206.698 303.406 206.562 304.031 206.562 304.719V336.812C206.562 337.5 206.708 338.115 207 338.656C207.312 339.177 207.833 339.594 208.562 339.906C209 340.073 209.708 340.26 210.688 340.469C211.688 340.656 212.531 340.76 213.219 340.781V343ZM238.156 343H218.188V340.781C218.75 340.74 219.562 340.677 220.625 340.594C221.688 340.51 222.438 340.385 222.875 340.219C223.562 339.948 224.062 339.583 224.375 339.125C224.688 338.646 224.844 337.99 224.844 337.156V305.031C224.844 304.302 224.729 303.698 224.5 303.219C224.271 302.719 223.729 302.302 222.875 301.969C222.25 301.719 221.458 301.49 220.5 301.281C219.562 301.052 218.792 300.917 218.188 300.875V298.656H238.156V300.875C237.51 300.896 236.74 300.979 235.844 301.125C234.948 301.25 234.167 301.417 233.5 301.625C232.708 301.875 232.177 302.281 231.906 302.844C231.635 303.406 231.5 304.031 231.5 304.719V336.812C231.5 337.5 231.646 338.115 231.938 338.656C232.25 339.177 232.771 339.594 233.5 339.906C233.938 340.073 234.646 340.26 235.625 340.469C236.625 340.656 237.469 340.76 238.156 340.781V343ZM279.531 303.906C281.49 305.948 283.021 308.417 284.125 311.312C285.229 314.188 285.781 317.375 285.781 320.875C285.781 324.396 285.219 327.594 284.094 330.469C282.969 333.344 281.406 335.792 279.406 337.812C277.469 339.812 275.219 341.354 272.656 342.438C270.094 343.521 267.365 344.062 264.469 344.062C261.385 344.062 258.531 343.49 255.906 342.344C253.302 341.177 251.062 339.562 249.188 337.5C247.312 335.479 245.833 333.031 244.75 330.156C243.688 327.26 243.156 324.167 243.156 320.875C243.156 317.271 243.719 314.062 244.844 311.25C245.969 308.417 247.521 305.969 249.5 303.906C251.458 301.865 253.729 300.302 256.312 299.219C258.917 298.135 261.635 297.594 264.469 297.594C267.406 297.594 270.177 298.146 272.781 299.25C275.385 300.354 277.635 301.906 279.531 303.906ZM274.875 335.344C276.042 333.448 276.885 331.302 277.406 328.906C277.948 326.51 278.219 323.833 278.219 320.875C278.219 317.833 277.917 315.042 277.312 312.5C276.729 309.958 275.865 307.792 274.719 306C273.573 304.229 272.135 302.854 270.406 301.875C268.677 300.875 266.698 300.375 264.469 300.375C261.969 300.375 259.844 300.948 258.094 302.094C256.344 303.24 254.917 304.771 253.812 306.688C252.771 308.521 251.99 310.667 251.469 313.125C250.969 315.583 250.719 318.167 250.719 320.875C250.719 323.875 250.99 326.583 251.531 329C252.073 331.417 252.927 333.562 254.094 335.438C255.219 337.271 256.635 338.708 258.344 339.75C260.052 340.771 262.094 341.281 264.469 341.281C266.698 341.281 268.708 340.76 270.5 339.719C272.292 338.677 273.75 337.219 274.875 335.344ZM344.719 343H325.125V340.781C325.833 340.76 326.74 340.688 327.844 340.562C328.969 340.438 329.74 340.26 330.156 340.031C330.802 339.635 331.271 339.188 331.562 338.688C331.875 338.167 332.031 337.521 332.031 336.75V304.5H331.562L316.438 342.281H314.875L300.469 303.719H300.062V330.188C300.062 332.75 300.219 334.698 300.531 336.031C300.865 337.365 301.365 338.323 302.031 338.906C302.49 339.344 303.438 339.76 304.875 340.156C306.312 340.552 307.25 340.76 307.688 340.781V343H289.781V340.781C290.719 340.698 291.698 340.542 292.719 340.312C293.76 340.083 294.562 339.74 295.125 339.281C295.854 338.698 296.354 337.802 296.625 336.594C296.896 335.385 297.031 333.365 297.031 330.531V307.844C297.031 306.531 296.875 305.458 296.562 304.625C296.25 303.792 295.802 303.115 295.219 302.594C294.573 302.031 293.781 301.615 292.844 301.344C291.906 301.073 290.979 300.917 290.062 300.875V298.656H305.188L317.875 331.906L328.719 304.094C329.115 303.073 329.448 302.01 329.719 300.906C330.01 299.781 330.167 299.031 330.188 298.656H344.656V300.875C344.073 300.896 343.323 300.99 342.406 301.156C341.51 301.323 340.854 301.479 340.438 301.625C339.729 301.875 339.25 302.292 339 302.875C338.75 303.458 338.625 304.094 338.625 304.781V336.75C338.625 337.479 338.75 338.094 339 338.594C339.25 339.094 339.729 339.531 340.438 339.906C340.812 340.115 341.479 340.312 342.438 340.5C343.396 340.667 344.156 340.76 344.719 340.781V343Z" fill="#FBF5EE"></path><path d="M119.766 393H114.302V392.341C114.45 392.329 114.664 392.31 114.942 392.286C115.226 392.261 115.421 392.224 115.526 392.174C115.712 392.1 115.848 391.989 115.935 391.84C116.021 391.686 116.064 391.488 116.064 391.247V386.562H109.876V391.145C109.876 391.361 109.91 391.543 109.979 391.692C110.053 391.84 110.195 391.97 110.405 392.082C110.51 392.137 110.696 392.193 110.962 392.249C111.234 392.304 111.447 392.335 111.602 392.341V393H106.138V392.341C106.286 392.329 106.5 392.31 106.778 392.286C107.062 392.261 107.257 392.224 107.362 392.174C107.548 392.1 107.684 391.989 107.771 391.84C107.857 391.686 107.9 391.488 107.9 391.247V381.747C107.9 381.549 107.86 381.369 107.78 381.208C107.699 381.042 107.56 380.912 107.362 380.819C107.195 380.738 106.991 380.667 106.75 380.605C106.515 380.544 106.311 380.507 106.138 380.494V379.835H111.602V380.494C111.429 380.5 111.215 380.528 110.962 380.578C110.715 380.627 110.529 380.674 110.405 380.717C110.195 380.791 110.053 380.915 109.979 381.088C109.91 381.261 109.876 381.45 109.876 381.654V385.736H116.064V381.747C116.064 381.549 116.024 381.369 115.944 381.208C115.863 381.042 115.724 380.912 115.526 380.819C115.359 380.738 115.155 380.667 114.914 380.605C114.679 380.544 114.475 380.507 114.302 380.494V379.835H119.766V380.494C119.593 380.5 119.38 380.528 119.126 380.578C118.879 380.627 118.693 380.674 118.569 380.717C118.359 380.791 118.217 380.915 118.143 381.088C118.075 381.261 118.041 381.45 118.041 381.654V391.145C118.041 391.361 118.075 391.543 118.143 391.692C118.217 391.84 118.359 391.97 118.569 392.082C118.674 392.137 118.86 392.193 119.126 392.249C119.398 392.304 119.611 392.335 119.766 392.341V393ZM130.055 392.833C129.764 392.938 129.507 393.022 129.285 393.083C129.068 393.152 128.821 393.186 128.542 393.186C128.06 393.186 127.674 393.074 127.383 392.852C127.098 392.623 126.916 392.292 126.835 391.859H126.78C126.378 392.304 125.945 392.644 125.481 392.879C125.023 393.114 124.47 393.232 123.82 393.232C123.134 393.232 122.568 393.022 122.123 392.601C121.683 392.181 121.464 391.63 121.464 390.95C121.464 390.597 121.513 390.282 121.612 390.003C121.711 389.725 121.86 389.475 122.058 389.252C122.212 389.066 122.416 388.903 122.67 388.76C122.924 388.612 123.162 388.494 123.384 388.408C123.663 388.303 124.225 388.108 125.073 387.823C125.926 387.539 126.501 387.316 126.798 387.155V386.237C126.798 386.156 126.78 386.002 126.743 385.773C126.712 385.544 126.641 385.328 126.529 385.124C126.406 384.895 126.229 384.697 126 384.53C125.778 384.357 125.459 384.27 125.045 384.27C124.76 384.27 124.494 384.319 124.247 384.418C124.006 384.511 123.836 384.61 123.737 384.715C123.737 384.839 123.765 385.021 123.82 385.263C123.882 385.504 123.913 385.727 123.913 385.931C123.913 386.147 123.814 386.345 123.616 386.524C123.424 386.704 123.155 386.793 122.809 386.793C122.5 386.793 122.271 386.685 122.123 386.469C121.98 386.246 121.909 385.999 121.909 385.727C121.909 385.442 122.008 385.17 122.206 384.91C122.41 384.65 122.673 384.418 122.995 384.214C123.273 384.041 123.61 383.896 124.006 383.778C124.402 383.655 124.788 383.593 125.166 383.593C125.685 383.593 126.137 383.63 126.52 383.704C126.91 383.772 127.262 383.924 127.578 384.159C127.893 384.388 128.131 384.7 128.292 385.096C128.459 385.485 128.542 385.989 128.542 386.608C128.542 387.492 128.533 388.278 128.515 388.964C128.496 389.645 128.487 390.39 128.487 391.2C128.487 391.441 128.527 391.633 128.607 391.775C128.694 391.918 128.824 392.038 128.997 392.137C129.09 392.193 129.235 392.224 129.433 392.23C129.637 392.236 129.844 392.239 130.055 392.239V392.833ZM126.817 387.935C126.291 388.089 125.83 388.241 125.435 388.389C125.039 388.538 124.671 388.723 124.331 388.946C124.021 389.156 123.777 389.407 123.598 389.697C123.418 389.982 123.329 390.322 123.329 390.718C123.329 391.231 123.462 391.608 123.728 391.85C124 392.091 124.343 392.211 124.757 392.211C125.196 392.211 125.583 392.106 125.917 391.896C126.251 391.68 126.532 391.426 126.761 391.135L126.817 387.935ZM137.968 385.031C137.968 385.346 137.891 385.628 137.736 385.875C137.582 386.116 137.344 386.237 137.022 386.237C136.676 386.237 136.41 386.147 136.224 385.968C136.045 385.788 135.955 385.59 135.955 385.374C135.955 385.238 135.964 385.114 135.983 385.003C136.008 384.892 136.029 384.78 136.048 384.669C135.757 384.669 135.417 384.786 135.027 385.021C134.638 385.257 134.307 385.59 134.035 386.023V391.349C134.035 391.565 134.075 391.741 134.155 391.877C134.242 392.014 134.375 392.116 134.554 392.184C134.709 392.245 134.907 392.292 135.148 392.323C135.395 392.354 135.609 392.375 135.788 392.388V393H130.964V392.388C131.106 392.375 131.251 392.363 131.4 392.351C131.555 392.338 131.688 392.313 131.799 392.276C131.972 392.221 132.099 392.125 132.179 391.989C132.266 391.847 132.309 391.664 132.309 391.441V385.792C132.309 385.6 132.263 385.411 132.17 385.226C132.083 385.04 131.96 384.892 131.799 384.78C131.681 384.706 131.542 384.653 131.381 384.623C131.221 384.585 131.047 384.561 130.862 384.548V383.945L133.905 383.741L134.035 383.871V385.161H134.081C134.465 384.66 134.891 384.279 135.361 384.02C135.831 383.76 136.261 383.63 136.651 383.63C137.041 383.63 137.356 383.757 137.597 384.01C137.845 384.264 137.968 384.604 137.968 385.031ZM154.426 393H149.964V392.388C150.106 392.375 150.248 392.363 150.391 392.351C150.539 392.338 150.669 392.313 150.78 392.276C150.953 392.221 151.08 392.125 151.161 391.989C151.247 391.847 151.291 391.664 151.291 391.441V386.719C151.291 386.076 151.142 385.581 150.845 385.235C150.555 384.882 150.19 384.706 149.75 384.706C149.447 384.706 149.163 384.752 148.897 384.845C148.631 384.938 148.387 385.068 148.164 385.235C147.985 385.371 147.833 385.519 147.709 385.68C147.592 385.835 147.502 385.965 147.44 386.07V391.349C147.44 391.565 147.478 391.744 147.552 391.887C147.626 392.023 147.753 392.128 147.932 392.202C148.074 392.258 148.201 392.301 148.312 392.332C148.43 392.357 148.582 392.375 148.767 392.388V393H144.397V392.388C144.54 392.375 144.676 392.363 144.806 392.351C144.942 392.338 145.065 392.313 145.177 392.276C145.35 392.221 145.477 392.125 145.557 391.989C145.644 391.847 145.687 391.664 145.687 391.441V386.719C145.687 386.076 145.539 385.581 145.242 385.235C144.951 384.882 144.586 384.706 144.147 384.706C143.844 384.706 143.559 384.756 143.293 384.854C143.028 384.947 142.783 385.077 142.561 385.244C142.381 385.38 142.23 385.535 142.106 385.708C141.982 385.875 141.889 386.002 141.828 386.088V391.33C141.828 391.54 141.871 391.717 141.958 391.859C142.044 392.001 142.174 392.109 142.347 392.184C142.477 392.245 142.61 392.292 142.746 392.323C142.882 392.354 143.034 392.375 143.201 392.388V393H138.757V392.388C138.899 392.375 139.044 392.363 139.193 392.351C139.347 392.338 139.48 392.313 139.592 392.276C139.765 392.221 139.892 392.125 139.972 391.989C140.059 391.847 140.102 391.664 140.102 391.441V385.754C140.102 385.556 140.056 385.38 139.963 385.226C139.876 385.065 139.753 384.929 139.592 384.817C139.474 384.743 139.329 384.684 139.156 384.641C138.983 384.592 138.803 384.561 138.618 384.548V383.945L141.679 383.741L141.809 383.871V385.179H141.874C142.029 385.025 142.217 384.842 142.44 384.632C142.663 384.422 142.87 384.251 143.062 384.122C143.278 383.973 143.547 383.849 143.869 383.75C144.196 383.652 144.549 383.602 144.926 383.602C145.52 383.602 146.03 383.763 146.457 384.084C146.884 384.4 147.19 384.783 147.375 385.235C147.598 385.018 147.793 384.83 147.96 384.669C148.133 384.502 148.359 384.326 148.637 384.14C148.872 383.979 149.147 383.849 149.463 383.75C149.785 383.652 150.14 383.602 150.53 383.602C151.303 383.602 151.915 383.856 152.367 384.363C152.818 384.87 153.044 385.649 153.044 386.701V391.349C153.044 391.565 153.081 391.744 153.155 391.887C153.229 392.023 153.356 392.128 153.536 392.202C153.678 392.258 153.817 392.301 153.953 392.332C154.095 392.357 154.253 392.375 154.426 392.388V393ZM164.409 388.333C164.409 388.977 164.307 389.611 164.103 390.235C163.898 390.854 163.608 391.38 163.23 391.812C162.804 392.307 162.309 392.675 161.746 392.917C161.183 393.158 160.552 393.278 159.854 393.278C159.272 393.278 158.719 393.17 158.193 392.954C157.667 392.731 157.2 392.409 156.792 391.989C156.39 391.574 156.068 391.07 155.827 390.477C155.592 389.877 155.475 389.206 155.475 388.463C155.475 387.035 155.889 385.866 156.718 384.957C157.553 384.047 158.644 383.593 159.993 383.593C161.273 383.593 162.327 384.026 163.156 384.892C163.991 385.751 164.409 386.899 164.409 388.333ZM162.488 388.352C162.488 387.888 162.442 387.4 162.349 386.886C162.256 386.367 162.117 385.928 161.932 385.569C161.734 385.185 161.474 384.879 161.152 384.65C160.831 384.415 160.438 384.298 159.974 384.298C159.498 384.298 159.09 384.415 158.75 384.65C158.416 384.885 158.143 385.207 157.933 385.615C157.735 385.993 157.596 386.422 157.516 386.905C157.435 387.387 157.395 387.854 157.395 388.306C157.395 388.899 157.441 389.45 157.534 389.957C157.633 390.458 157.788 390.906 157.998 391.302C158.208 391.698 158.471 392.01 158.787 392.239C159.108 392.462 159.504 392.573 159.974 392.573C160.747 392.573 161.36 392.199 161.811 391.451C162.263 390.702 162.488 389.669 162.488 388.352ZM175.838 393H171.357V392.388C171.5 392.375 171.654 392.363 171.821 392.351C171.994 392.338 172.137 392.313 172.248 392.276C172.421 392.221 172.548 392.125 172.628 391.989C172.715 391.847 172.758 391.664 172.758 391.441V386.738C172.758 386.088 172.604 385.587 172.294 385.235C171.991 384.882 171.62 384.706 171.181 384.706C170.853 384.706 170.553 384.759 170.281 384.864C170.009 384.963 169.768 385.086 169.558 385.235C169.354 385.377 169.19 385.532 169.066 385.699C168.948 385.86 168.862 385.989 168.806 386.088V391.349C168.806 391.559 168.849 391.732 168.936 391.868C169.023 392.004 169.153 392.109 169.326 392.184C169.456 392.245 169.595 392.292 169.743 392.323C169.898 392.354 170.056 392.375 170.216 392.388V393H165.735V392.388C165.878 392.375 166.023 392.363 166.171 392.351C166.326 392.338 166.459 392.313 166.57 392.276C166.743 392.221 166.87 392.125 166.951 391.989C167.037 391.847 167.081 391.664 167.081 391.441V385.792C167.081 385.581 167.034 385.389 166.941 385.216C166.855 385.037 166.731 384.892 166.57 384.78C166.453 384.706 166.314 384.653 166.153 384.623C165.992 384.585 165.819 384.561 165.633 384.548V383.945L168.676 383.741L168.806 383.871V385.161H168.853C169.001 385.012 169.187 384.836 169.409 384.632C169.632 384.422 169.842 384.251 170.04 384.122C170.269 383.973 170.541 383.849 170.856 383.75C171.172 383.652 171.528 383.602 171.923 383.602C172.802 383.602 173.451 383.877 173.872 384.428C174.298 384.972 174.512 385.699 174.512 386.608V391.367C174.512 391.584 174.549 391.76 174.623 391.896C174.697 392.026 174.824 392.128 175.003 392.202C175.152 392.264 175.279 392.307 175.384 392.332C175.495 392.357 175.647 392.375 175.838 392.388V393ZM176.265 395.987C176.265 395.678 176.349 395.424 176.516 395.227C176.689 395.035 176.902 394.939 177.156 394.939C177.354 394.939 177.524 394.976 177.666 395.05C177.808 395.125 177.935 395.22 178.046 395.338C178.139 395.431 178.238 395.557 178.343 395.718C178.448 395.879 178.532 396.012 178.594 396.117C178.903 395.95 179.271 395.514 179.698 394.809C180.131 394.104 180.443 393.486 180.635 392.954C180.047 391.488 179.515 390.177 179.039 389.02C178.563 387.863 178.065 386.667 177.545 385.43C177.428 385.145 177.23 384.926 176.952 384.771C176.673 384.61 176.395 384.508 176.117 384.465V383.853H180.292V384.502C180.106 384.508 179.883 384.548 179.624 384.623C179.364 384.691 179.234 384.771 179.234 384.864C179.234 384.901 179.246 384.963 179.271 385.049C179.302 385.136 179.336 385.226 179.373 385.318C179.608 385.931 179.967 386.815 180.449 387.972C180.932 389.122 181.306 390.044 181.572 390.736C181.85 390.075 182.138 389.391 182.435 388.686C182.738 387.975 183.075 387.137 183.446 386.172C183.489 386.054 183.551 385.894 183.631 385.689C183.712 385.479 183.752 385.3 183.752 385.151C183.752 384.991 183.61 384.842 183.325 384.706C183.047 384.564 182.781 384.477 182.527 384.446V383.853H185.923V384.428C185.737 384.459 185.493 384.567 185.19 384.752C184.887 384.932 184.661 385.188 184.513 385.522C183.777 387.229 183.121 388.785 182.546 390.189C181.977 391.593 181.544 392.626 181.247 393.288C180.857 394.153 180.508 394.828 180.199 395.31C179.896 395.799 179.599 396.182 179.308 396.46C179.024 396.72 178.764 396.893 178.529 396.98C178.3 397.073 178.062 397.119 177.814 397.119C177.332 397.119 176.952 397.005 176.673 396.776C176.401 396.547 176.265 396.284 176.265 395.987ZM199.811 388.333C199.811 388.977 199.709 389.611 199.505 390.235C199.301 390.854 199.01 391.38 198.633 391.812C198.206 392.307 197.711 392.675 197.148 392.917C196.586 393.158 195.955 393.278 195.256 393.278C194.674 393.278 194.121 393.17 193.595 392.954C193.069 392.731 192.603 392.409 192.194 391.989C191.792 391.574 191.471 391.07 191.229 390.477C190.994 389.877 190.877 389.206 190.877 388.463C190.877 387.035 191.291 385.866 192.12 384.957C192.955 384.047 194.047 383.593 195.395 383.593C196.675 383.593 197.73 384.026 198.559 384.892C199.394 385.751 199.811 386.899 199.811 388.333ZM197.891 388.352C197.891 387.888 197.844 387.4 197.751 386.886C197.659 386.367 197.52 385.928 197.334 385.569C197.136 385.185 196.876 384.879 196.555 384.65C196.233 384.415 195.84 384.298 195.376 384.298C194.9 384.298 194.492 384.415 194.152 384.65C193.818 384.885 193.546 385.207 193.335 385.615C193.138 385.993 192.998 386.422 192.918 386.905C192.838 387.387 192.797 387.854 192.797 388.306C192.797 388.899 192.844 389.45 192.937 389.957C193.035 390.458 193.19 390.906 193.4 391.302C193.611 391.698 193.874 392.01 194.189 392.239C194.511 392.462 194.906 392.573 195.376 392.573C196.15 392.573 196.762 392.199 197.213 391.451C197.665 390.702 197.891 389.669 197.891 388.352ZM207.947 379.743C207.947 380.021 207.873 380.256 207.725 380.448C207.576 380.639 207.35 380.735 207.047 380.735C206.856 380.735 206.686 380.695 206.537 380.615C206.395 380.534 206.262 380.426 206.138 380.29C206.014 380.154 205.9 379.999 205.795 379.826C205.69 379.653 205.6 379.514 205.526 379.409C205.111 379.427 204.79 379.718 204.561 380.281C204.338 380.837 204.227 381.728 204.227 382.953V383.89H206.583V384.78H204.227V391.349C204.227 391.565 204.267 391.741 204.348 391.877C204.434 392.014 204.567 392.116 204.747 392.184C204.895 392.239 205.093 392.286 205.34 392.323C205.588 392.354 205.801 392.375 205.98 392.388V393H201.156V392.388C201.299 392.375 201.444 392.363 201.592 392.351C201.747 392.338 201.88 392.313 201.991 392.276C202.164 392.221 202.291 392.125 202.372 391.989C202.458 391.847 202.501 391.664 202.501 391.441V384.78H200.692V383.89H202.501V383.305C202.501 381.914 202.86 380.788 203.578 379.928C204.301 379.062 205.204 378.629 206.287 378.629C206.837 378.629 207.251 378.738 207.53 378.954C207.808 379.171 207.947 379.433 207.947 379.743ZM221.919 392.833L218.728 393.037L218.588 392.907V392.054L218.514 392.035C218.193 392.394 217.794 392.688 217.317 392.917C216.847 393.145 216.362 393.26 215.861 393.26C215.341 393.26 214.837 393.145 214.349 392.917C213.866 392.681 213.446 392.354 213.087 391.933C212.722 391.506 212.431 390.993 212.215 390.393C212.005 389.793 211.899 389.131 211.899 388.408C211.899 387.746 212.014 387.118 212.243 386.524C212.472 385.931 212.787 385.411 213.189 384.966C213.566 384.551 214.027 384.221 214.571 383.973C215.122 383.726 215.681 383.602 216.25 383.602C216.677 383.602 217.095 383.658 217.503 383.769C217.917 383.874 218.273 384.01 218.57 384.177V380.995C218.57 380.735 218.527 380.5 218.44 380.29C218.353 380.074 218.233 379.91 218.078 379.798C217.905 379.681 217.67 379.597 217.373 379.548C217.082 379.492 216.767 379.452 216.427 379.427V378.852L220.166 378.639L220.305 378.778V391.117C220.305 391.333 220.345 391.519 220.425 391.673C220.512 391.822 220.636 391.949 220.796 392.054C220.914 392.128 221.084 392.174 221.307 392.193C221.529 392.211 221.733 392.224 221.919 392.23V392.833ZM218.57 391.228V385.875C218.52 385.714 218.44 385.541 218.329 385.355C218.217 385.17 218.078 385 217.911 384.845C217.732 384.691 217.521 384.564 217.28 384.465C217.039 384.36 216.758 384.307 216.436 384.307C216.065 384.307 215.722 384.403 215.406 384.595C215.097 384.786 214.822 385.062 214.581 385.42C214.352 385.767 214.169 386.209 214.033 386.747C213.903 387.279 213.838 387.87 213.838 388.519C213.838 389.039 213.888 389.512 213.987 389.938C214.086 390.359 214.253 390.752 214.488 391.117C214.704 391.463 214.979 391.741 215.313 391.952C215.654 392.162 216.056 392.267 216.52 392.267C217.014 392.267 217.423 392.159 217.744 391.942C218.072 391.726 218.347 391.488 218.57 391.228ZM227.253 393H222.828V392.388C222.97 392.375 223.116 392.363 223.264 392.351C223.419 392.338 223.552 392.313 223.663 392.276C223.836 392.221 223.963 392.125 224.043 391.989C224.13 391.847 224.173 391.664 224.173 391.441V385.792C224.173 385.594 224.127 385.414 224.034 385.253C223.948 385.086 223.824 384.947 223.663 384.836C223.546 384.762 223.375 384.7 223.153 384.65C222.93 384.595 222.726 384.561 222.541 384.548V383.945L225.769 383.741L225.899 383.871V391.33C225.899 391.547 225.939 391.726 226.02 391.868C226.106 392.01 226.239 392.116 226.418 392.184C226.555 392.239 226.688 392.286 226.817 392.323C226.947 392.354 227.093 392.375 227.253 392.388V393ZM226.084 380.132C226.084 380.485 225.967 380.794 225.732 381.06C225.503 381.32 225.219 381.45 224.878 381.45C224.563 381.45 224.288 381.326 224.053 381.079C223.824 380.825 223.709 380.537 223.709 380.216C223.709 379.876 223.824 379.579 224.053 379.325C224.288 379.072 224.563 378.945 224.878 378.945C225.231 378.945 225.519 379.065 225.741 379.307C225.97 379.542 226.084 379.817 226.084 380.132ZM236.215 392.054C236.463 392.289 236.658 392.555 236.8 392.852C236.942 393.148 237.013 393.516 237.013 393.956C237.013 394.395 236.917 394.806 236.726 395.189C236.534 395.579 236.243 395.916 235.854 396.201C235.439 396.491 234.944 396.717 234.369 396.878C233.794 397.039 233.083 397.119 232.235 397.119C230.85 397.119 229.814 396.915 229.127 396.507C228.441 396.105 228.098 395.514 228.098 394.735C228.098 394.104 228.345 393.606 228.84 393.241C229.335 392.876 229.965 392.678 230.732 392.647V392.518C230.547 392.462 230.355 392.394 230.157 392.313C229.959 392.227 229.789 392.128 229.647 392.017C229.486 391.887 229.356 391.735 229.257 391.562C229.158 391.383 229.109 391.163 229.109 390.903C229.109 390.576 229.223 390.276 229.452 390.003C229.687 389.725 230.04 389.487 230.51 389.289V389.15C229.916 388.872 229.455 388.516 229.127 388.083C228.8 387.644 228.636 387.137 228.636 386.562C228.636 385.696 228.957 384.984 229.601 384.428C230.25 383.871 231.079 383.593 232.087 383.593C232.365 383.593 232.64 383.621 232.913 383.676C233.191 383.732 233.472 383.803 233.757 383.89H236.948V384.78H234.796V384.836C235.025 385.102 235.195 385.396 235.306 385.717C235.417 386.039 235.473 386.354 235.473 386.664C235.473 387.468 235.145 388.148 234.49 388.705C233.84 389.261 233.083 389.54 232.217 389.54H231.094C230.952 389.589 230.804 389.679 230.649 389.809C230.494 389.938 230.417 390.115 230.417 390.337C230.417 390.566 230.482 390.743 230.612 390.866C230.742 390.984 230.899 391.064 231.085 391.107C231.264 391.157 231.472 391.188 231.707 391.2C231.948 391.213 232.195 391.222 232.449 391.228C232.721 391.234 233.092 391.253 233.562 391.284C234.038 391.315 234.375 391.333 234.573 391.339C234.858 391.352 235.142 391.42 235.427 391.543C235.717 391.667 235.98 391.837 236.215 392.054ZM233.71 386.626C233.71 385.903 233.562 385.328 233.265 384.901C232.974 384.468 232.563 384.251 232.031 384.251C231.741 384.251 231.49 384.313 231.28 384.437C231.076 384.555 230.909 384.725 230.779 384.947C230.655 385.151 230.565 385.399 230.51 385.689C230.46 385.974 230.436 386.268 230.436 386.571C230.436 387.257 230.584 387.817 230.881 388.25C231.184 388.683 231.574 388.899 232.05 388.899C232.582 388.899 232.99 388.686 233.274 388.259C233.565 387.826 233.71 387.282 233.71 386.626ZM235.492 394.299C235.492 393.952 235.411 393.668 235.25 393.445C235.09 393.223 234.845 393.071 234.518 392.991C234.344 392.966 233.989 392.938 233.451 392.907C232.913 392.876 232.288 392.861 231.577 392.861C230.909 392.991 230.432 393.207 230.148 393.51C229.87 393.819 229.73 394.215 229.73 394.698C229.73 394.914 229.777 395.121 229.87 395.319C229.962 395.517 230.123 395.7 230.352 395.867C230.569 396.028 230.859 396.157 231.224 396.256C231.589 396.361 232.034 396.414 232.56 396.414C233.469 396.414 234.184 396.238 234.703 395.885C235.229 395.539 235.492 395.01 235.492 394.299ZM242.505 393H238.08V392.388C238.222 392.375 238.368 392.363 238.516 392.351C238.671 392.338 238.804 392.313 238.915 392.276C239.088 392.221 239.215 392.125 239.295 391.989C239.382 391.847 239.425 391.664 239.425 391.441V385.792C239.425 385.594 239.379 385.414 239.286 385.253C239.2 385.086 239.076 384.947 238.915 384.836C238.798 384.762 238.627 384.7 238.405 384.65C238.182 384.595 237.978 384.561 237.792 384.548V383.945L241.021 383.741L241.151 383.871V391.33C241.151 391.547 241.191 391.726 241.271 391.868C241.358 392.01 241.491 392.116 241.67 392.184C241.806 392.239 241.939 392.286 242.069 392.323C242.199 392.354 242.345 392.375 242.505 392.388V393ZM241.336 380.132C241.336 380.485 241.219 380.794 240.984 381.06C240.755 381.32 240.471 381.45 240.13 381.45C239.815 381.45 239.54 381.326 239.305 381.079C239.076 380.825 238.961 380.537 238.961 380.216C238.961 379.876 239.076 379.579 239.305 379.325C239.54 379.072 239.815 378.945 240.13 378.945C240.483 378.945 240.771 379.065 240.993 379.307C241.222 379.542 241.336 379.817 241.336 380.132ZM249.278 392.601C248.876 392.768 248.495 392.907 248.137 393.019C247.778 393.136 247.339 393.195 246.819 393.195C246.052 393.195 245.511 393.003 245.196 392.62C244.887 392.23 244.732 391.683 244.732 390.978V384.78H243.081V383.89H244.769V381.042H246.458V383.89H249.083V384.78H246.476V389.892C246.476 390.276 246.488 390.597 246.513 390.857C246.544 391.111 246.612 391.333 246.717 391.525C246.816 391.704 246.965 391.84 247.163 391.933C247.361 392.026 247.626 392.072 247.96 392.072C248.115 392.072 248.341 392.06 248.638 392.035C248.941 392.004 249.154 391.967 249.278 391.924V392.601ZM258.861 392.833C258.571 392.938 258.314 393.022 258.091 393.083C257.875 393.152 257.627 393.186 257.349 393.186C256.867 393.186 256.48 393.074 256.189 392.852C255.905 392.623 255.722 392.292 255.642 391.859H255.586C255.184 392.304 254.751 392.644 254.288 392.879C253.83 393.114 253.276 393.232 252.627 393.232C251.94 393.232 251.375 393.022 250.929 392.601C250.49 392.181 250.271 391.63 250.271 390.95C250.271 390.597 250.32 390.282 250.419 390.003C250.518 389.725 250.666 389.475 250.864 389.252C251.019 389.066 251.223 388.903 251.477 388.76C251.73 388.612 251.968 388.494 252.191 388.408C252.469 388.303 253.032 388.108 253.879 387.823C254.733 387.539 255.308 387.316 255.605 387.155V386.237C255.605 386.156 255.586 386.002 255.549 385.773C255.518 385.544 255.447 385.328 255.336 385.124C255.212 384.895 255.036 384.697 254.807 384.53C254.584 384.357 254.266 384.27 253.852 384.27C253.567 384.27 253.301 384.319 253.054 384.418C252.812 384.511 252.642 384.61 252.543 384.715C252.543 384.839 252.571 385.021 252.627 385.263C252.689 385.504 252.72 385.727 252.72 385.931C252.72 386.147 252.621 386.345 252.423 386.524C252.231 386.704 251.962 386.793 251.616 386.793C251.306 386.793 251.078 386.685 250.929 386.469C250.787 386.246 250.716 385.999 250.716 385.727C250.716 385.442 250.815 385.17 251.013 384.91C251.217 384.65 251.48 384.418 251.801 384.214C252.08 384.041 252.417 383.896 252.812 383.778C253.208 383.655 253.595 383.593 253.972 383.593C254.492 383.593 254.943 383.63 255.327 383.704C255.716 383.772 256.069 383.924 256.384 384.159C256.7 384.388 256.938 384.7 257.099 385.096C257.266 385.485 257.349 385.989 257.349 386.608C257.349 387.492 257.34 388.278 257.321 388.964C257.303 389.645 257.293 390.39 257.293 391.2C257.293 391.441 257.334 391.633 257.414 391.775C257.501 391.918 257.631 392.038 257.804 392.137C257.896 392.193 258.042 392.224 258.24 392.23C258.444 392.236 258.651 392.239 258.861 392.239V392.833ZM255.624 387.935C255.098 388.089 254.637 388.241 254.241 388.389C253.845 388.538 253.477 388.723 253.137 388.946C252.828 389.156 252.584 389.407 252.404 389.697C252.225 389.982 252.135 390.322 252.135 390.718C252.135 391.231 252.268 391.608 252.534 391.85C252.806 392.091 253.15 392.211 253.564 392.211C254.003 392.211 254.39 392.106 254.724 391.896C255.058 391.68 255.339 391.426 255.568 391.135L255.624 387.935ZM264.057 393H259.594V392.388C259.736 392.375 259.888 392.363 260.049 392.351C260.21 392.332 260.343 392.307 260.448 392.276C260.621 392.221 260.751 392.125 260.837 391.989C260.924 391.847 260.967 391.664 260.967 391.441V380.847C260.967 380.624 260.918 380.417 260.819 380.225C260.726 380.027 260.602 379.873 260.448 379.761C260.336 379.687 260.132 379.619 259.835 379.557C259.539 379.495 259.3 379.458 259.121 379.446V378.852L262.563 378.639L262.693 378.778V391.33C262.693 391.547 262.733 391.726 262.813 391.868C262.894 392.004 263.024 392.109 263.203 392.184C263.339 392.245 263.472 392.292 263.602 392.323C263.738 392.354 263.89 392.375 264.057 392.388V393ZM275.83 388.519C276.083 388.742 276.278 388.998 276.414 389.289C276.55 389.58 276.618 389.935 276.618 390.356C276.618 391.203 276.3 391.896 275.663 392.434C275.032 392.972 274.212 393.241 273.204 393.241C272.672 393.241 272.181 393.145 271.729 392.954C271.284 392.762 270.965 392.586 270.773 392.425L270.588 393.028H269.892L269.799 389.846H270.439C270.489 390.087 270.594 390.368 270.755 390.69C270.916 391.012 271.111 391.302 271.339 391.562C271.581 391.834 271.868 392.063 272.202 392.249C272.542 392.434 272.923 392.527 273.343 392.527C273.937 392.527 274.395 392.394 274.716 392.128C275.038 391.856 275.199 391.469 275.199 390.968C275.199 390.708 275.146 390.486 275.041 390.3C274.942 390.109 274.794 389.942 274.596 389.799C274.392 389.657 274.141 389.53 273.844 389.419C273.547 389.301 273.216 389.187 272.852 389.076C272.561 388.989 272.236 388.872 271.877 388.723C271.525 388.569 271.222 388.389 270.968 388.185C270.696 387.969 270.473 387.703 270.3 387.387C270.127 387.072 270.041 386.701 270.041 386.274C270.041 385.526 270.319 384.892 270.875 384.372C271.432 383.853 272.177 383.593 273.111 383.593C273.47 383.593 273.835 383.639 274.206 383.732C274.583 383.825 274.889 383.936 275.125 384.066L275.338 383.583H276.006L276.145 386.524H275.505C275.375 385.869 275.094 385.337 274.661 384.929C274.234 384.514 273.711 384.307 273.093 384.307C272.586 384.307 272.187 384.434 271.896 384.688C271.605 384.941 271.46 385.247 271.46 385.606C271.46 385.884 271.506 386.116 271.599 386.302C271.698 386.487 271.843 386.645 272.035 386.775C272.221 386.899 272.453 387.016 272.731 387.127C273.015 387.233 273.365 387.353 273.779 387.489C274.188 387.619 274.571 387.771 274.93 387.944C275.295 388.117 275.595 388.309 275.83 388.519ZM286.925 388.333C286.925 388.977 286.823 389.611 286.619 390.235C286.415 390.854 286.124 391.38 285.747 391.812C285.32 392.307 284.826 392.675 284.263 392.917C283.7 393.158 283.069 393.278 282.37 393.278C281.789 393.278 281.235 393.17 280.709 392.954C280.184 392.731 279.717 392.409 279.309 391.989C278.907 391.574 278.585 391.07 278.344 390.477C278.109 389.877 277.991 389.206 277.991 388.463C277.991 387.035 278.406 385.866 279.234 384.957C280.069 384.047 281.161 383.593 282.509 383.593C283.79 383.593 284.844 384.026 285.673 384.892C286.508 385.751 286.925 386.899 286.925 388.333ZM285.005 388.352C285.005 387.888 284.958 387.4 284.866 386.886C284.773 386.367 284.634 385.928 284.448 385.569C284.25 385.185 283.991 384.879 283.669 384.65C283.347 384.415 282.955 384.298 282.491 384.298C282.014 384.298 281.606 384.415 281.266 384.65C280.932 384.885 280.66 385.207 280.45 385.615C280.252 385.993 280.113 386.422 280.032 386.905C279.952 387.387 279.912 387.854 279.912 388.306C279.912 388.899 279.958 389.45 280.051 389.957C280.15 390.458 280.304 390.906 280.515 391.302C280.725 391.698 280.988 392.01 281.303 392.239C281.625 392.462 282.021 392.573 282.491 392.573C283.264 392.573 283.876 392.199 284.328 391.451C284.779 390.702 285.005 389.669 285.005 388.352ZM292.538 393H288.076V392.388C288.218 392.375 288.369 392.363 288.53 392.351C288.691 392.332 288.824 392.307 288.929 392.276C289.102 392.221 289.232 392.125 289.319 391.989C289.405 391.847 289.449 391.664 289.449 391.441V380.847C289.449 380.624 289.399 380.417 289.3 380.225C289.208 380.027 289.084 379.873 288.929 379.761C288.818 379.687 288.614 379.619 288.317 379.557C288.02 379.495 287.782 379.458 287.603 379.446V378.852L291.044 378.639L291.174 378.778V391.33C291.174 391.547 291.215 391.726 291.295 391.868C291.375 392.004 291.505 392.109 291.685 392.184C291.821 392.245 291.954 392.292 292.083 392.323C292.22 392.354 292.371 392.375 292.538 392.388V393ZM303.495 392.833L300.517 393.037L300.377 392.907V391.748H300.322C300.173 391.902 300.006 392.069 299.821 392.249C299.635 392.422 299.422 392.579 299.181 392.722C298.902 392.889 298.633 393.015 298.374 393.102C298.114 393.189 297.746 393.232 297.27 393.232C296.459 393.232 295.841 392.969 295.414 392.443C294.993 391.911 294.783 391.141 294.783 390.133V385.754C294.783 385.532 294.74 385.346 294.653 385.198C294.573 385.043 294.452 384.91 294.292 384.799C294.18 384.725 294.041 384.672 293.874 384.641C293.707 384.604 293.531 384.579 293.345 384.567V383.964L296.397 383.741L296.537 383.871V390.226C296.537 390.888 296.685 391.386 296.982 391.72C297.279 392.054 297.634 392.221 298.049 392.221C298.389 392.221 298.692 392.168 298.958 392.063C299.224 391.958 299.447 391.834 299.626 391.692C299.793 391.562 299.938 391.426 300.062 391.284C300.192 391.135 300.291 390.999 300.359 390.875V385.689C300.359 385.485 300.316 385.306 300.229 385.151C300.142 384.991 300.022 384.854 299.867 384.743C299.756 384.669 299.589 384.626 299.366 384.613C299.15 384.595 298.905 384.579 298.633 384.567V383.964L301.955 383.741L302.094 383.871V391.135C302.094 391.346 302.137 391.525 302.224 391.673C302.31 391.822 302.431 391.949 302.585 392.054C302.697 392.122 302.83 392.168 302.984 392.193C303.139 392.211 303.309 392.224 303.495 392.23V392.833ZM310.267 392.601C309.865 392.768 309.485 392.907 309.126 393.019C308.767 393.136 308.328 393.195 307.809 393.195C307.042 393.195 306.5 393.003 306.185 392.62C305.876 392.23 305.721 391.683 305.721 390.978V384.78H304.07V383.89H305.758V381.042H307.447V383.89H310.072V384.78H307.465V389.892C307.465 390.276 307.478 390.597 307.502 390.857C307.533 391.111 307.601 391.333 307.707 391.525C307.806 391.704 307.954 391.84 308.152 391.933C308.35 392.026 308.616 392.072 308.95 392.072C309.104 392.072 309.33 392.06 309.627 392.035C309.93 392.004 310.143 391.967 310.267 391.924V392.601ZM315.629 393H311.204V392.388C311.346 392.375 311.492 392.363 311.64 392.351C311.795 392.338 311.928 392.313 312.039 392.276C312.212 392.221 312.339 392.125 312.419 391.989C312.506 391.847 312.549 391.664 312.549 391.441V385.792C312.549 385.594 312.503 385.414 312.41 385.253C312.324 385.086 312.2 384.947 312.039 384.836C311.922 384.762 311.751 384.7 311.529 384.65C311.306 384.595 311.102 384.561 310.917 384.548V383.945L314.145 383.741L314.275 383.871V391.33C314.275 391.547 314.315 391.726 314.396 391.868C314.482 392.01 314.615 392.116 314.794 392.184C314.931 392.239 315.063 392.286 315.193 392.323C315.323 392.354 315.469 392.375 315.629 392.388V393ZM314.46 380.132C314.46 380.485 314.343 380.794 314.108 381.06C313.879 381.32 313.595 381.45 313.254 381.45C312.939 381.45 312.664 381.326 312.429 381.079C312.2 380.825 312.085 380.537 312.085 380.216C312.085 379.876 312.2 379.579 312.429 379.325C312.664 379.072 312.939 378.945 313.254 378.945C313.607 378.945 313.895 379.065 314.117 379.307C314.346 379.542 314.46 379.817 314.46 380.132ZM325.667 388.333C325.667 388.977 325.565 389.611 325.361 390.235C325.157 390.854 324.867 391.38 324.489 391.812C324.062 392.307 323.568 392.675 323.005 392.917C322.442 393.158 321.811 393.278 321.112 393.278C320.531 393.278 319.977 393.17 319.452 392.954C318.926 392.731 318.459 392.409 318.051 391.989C317.649 391.574 317.327 391.07 317.086 390.477C316.851 389.877 316.733 389.206 316.733 388.463C316.733 387.035 317.148 385.866 317.977 384.957C318.812 384.047 319.903 383.593 321.251 383.593C322.532 383.593 323.586 384.026 324.415 384.892C325.25 385.751 325.667 386.899 325.667 388.333ZM323.747 388.352C323.747 387.888 323.701 387.4 323.608 386.886C323.515 386.367 323.376 385.928 323.19 385.569C322.993 385.185 322.733 384.879 322.411 384.65C322.09 384.415 321.697 384.298 321.233 384.298C320.757 384.298 320.348 384.415 320.008 384.65C319.674 384.885 319.402 385.207 319.192 385.615C318.994 385.993 318.855 386.422 318.774 386.905C318.694 387.387 318.654 387.854 318.654 388.306C318.654 388.899 318.7 389.45 318.793 389.957C318.892 390.458 319.047 390.906 319.257 391.302C319.467 391.698 319.73 392.01 320.045 392.239C320.367 392.462 320.763 392.573 321.233 392.573C322.006 392.573 322.618 392.199 323.07 391.451C323.521 390.702 323.747 389.669 323.747 388.352ZM337.097 393H332.616V392.388C332.758 392.375 332.913 392.363 333.08 392.351C333.253 392.338 333.396 392.313 333.507 392.276C333.68 392.221 333.807 392.125 333.887 391.989C333.974 391.847 334.017 391.664 334.017 391.441V386.738C334.017 386.088 333.862 385.587 333.553 385.235C333.25 384.882 332.879 384.706 332.44 384.706C332.112 384.706 331.812 384.759 331.54 384.864C331.268 384.963 331.027 385.086 330.816 385.235C330.612 385.377 330.448 385.532 330.325 385.699C330.207 385.86 330.121 385.989 330.065 386.088V391.349C330.065 391.559 330.108 391.732 330.195 391.868C330.281 392.004 330.411 392.109 330.584 392.184C330.714 392.245 330.854 392.292 331.002 392.323C331.157 392.354 331.314 392.375 331.475 392.388V393H326.994V392.388C327.136 392.375 327.282 392.363 327.43 392.351C327.585 392.338 327.718 392.313 327.829 392.276C328.002 392.221 328.129 392.125 328.209 391.989C328.296 391.847 328.339 391.664 328.339 391.441V385.792C328.339 385.581 328.293 385.389 328.2 385.216C328.114 385.037 327.99 384.892 327.829 384.78C327.712 384.706 327.572 384.653 327.412 384.623C327.251 384.585 327.078 384.561 326.892 384.548V383.945L329.935 383.741L330.065 383.871V385.161H330.111C330.26 385.012 330.445 384.836 330.668 384.632C330.891 384.422 331.101 384.251 331.299 384.122C331.528 383.973 331.8 383.849 332.115 383.75C332.431 383.652 332.786 383.602 333.182 383.602C334.06 383.602 334.71 383.877 335.13 384.428C335.557 384.972 335.771 385.699 335.771 386.608V391.367C335.771 391.584 335.808 391.76 335.882 391.896C335.956 392.026 336.083 392.128 336.262 392.202C336.411 392.264 336.537 392.307 336.643 392.332C336.754 392.357 336.905 392.375 337.097 392.388V393ZM344.259 388.519C344.513 388.742 344.708 388.998 344.844 389.289C344.98 389.58 345.048 389.935 345.048 390.356C345.048 391.203 344.729 391.896 344.092 392.434C343.461 392.972 342.642 393.241 341.634 393.241C341.102 393.241 340.61 393.145 340.159 392.954C339.713 392.762 339.395 392.586 339.203 392.425L339.018 393.028H338.322L338.229 389.846H338.869C338.919 390.087 339.024 390.368 339.185 390.69C339.345 391.012 339.54 391.302 339.769 391.562C340.01 391.834 340.298 392.063 340.632 392.249C340.972 392.434 341.352 392.527 341.773 392.527C342.367 392.527 342.824 392.394 343.146 392.128C343.468 391.856 343.628 391.469 343.628 390.968C343.628 390.708 343.576 390.486 343.471 390.3C343.372 390.109 343.223 389.942 343.025 389.799C342.821 389.657 342.571 389.53 342.274 389.419C341.977 389.301 341.646 389.187 341.281 389.076C340.991 388.989 340.666 388.872 340.307 388.723C339.955 388.569 339.652 388.389 339.398 388.185C339.126 387.969 338.903 387.703 338.73 387.387C338.557 387.072 338.47 386.701 338.47 386.274C338.47 385.526 338.749 384.892 339.305 384.372C339.862 383.853 340.607 383.593 341.541 383.593C341.9 383.593 342.265 383.639 342.636 383.732C343.013 383.825 343.319 383.936 343.554 384.066L343.768 383.583H344.436L344.575 386.524H343.935C343.805 385.869 343.523 385.337 343.09 384.929C342.664 384.514 342.141 384.307 341.522 384.307C341.015 384.307 340.616 384.434 340.326 384.688C340.035 384.941 339.89 385.247 339.89 385.606C339.89 385.884 339.936 386.116 340.029 386.302C340.128 386.487 340.273 386.645 340.465 386.775C340.65 386.899 340.882 387.016 341.161 387.127C341.445 387.233 341.795 387.353 342.209 387.489C342.617 387.619 343.001 387.771 343.359 387.944C343.724 388.117 344.024 388.309 344.259 388.519Z" fill="#FBF5EE"></path><defs><clipPath id="clip0_926_4325"><rect width="151" height="163" fill="white" transform="translate(150 70)"></rect></clipPath></defs></svg> 